<?xml version="1.0" encoding="UTF-8"?>
<svg version="1.1" xmlns="http://www.w3.org/2000/svg" width="1024" height="1024">
<path d="M0 0 C1.28390625 -0.01546875 1.28390625 -0.01546875 2.59375 -0.03125 C10.89902623 1.48691877 16.05185733 6.54617272 21.6875 12.5 C23.05369019 13.91888426 24.42212239 15.33561376 25.79296875 16.75 C26.75178955 17.73987915 26.75178955 17.73987915 27.72998047 18.74975586 C29.8530794 20.84913466 32.15069756 22.66087883 34.5 24.5 C35.70163834 25.78055951 36.87082464 27.09260953 38 28.4375 C42.73692714 33.95713827 47.90776177 38.77185615 53.35546875 43.578125 C55.83233768 45.79783267 58.18182061 48.11558691 60.5 50.5 C61.263125 51.221875 62.02625 51.94375 62.8125 52.6875 C64.5 54.5 64.5 54.5 64.5 56.5 C65.35628746 56.86831184 65.35628746 56.86831184 66.22987366 57.24406433 C68.89027409 58.71591712 70.67810178 60.43818266 72.82202148 62.5949707 C73.66647324 63.43957352 74.51092499 64.28417633 75.38096619 65.15437317 C76.28520828 66.06893784 77.18945038 66.9835025 78.12109375 67.92578125 C79.06703014 68.87545287 80.01341284 69.82468013 80.96022034 70.77348328 C83.45005745 73.27094426 85.93383779 75.7743449 88.41638184 78.27905273 C90.93090269 80.8139545 93.45101118 83.34328695 95.97070312 85.87304688 C99.66638525 89.58462153 103.3590223 93.29918418 107.04858398 97.0168457 C107.83216278 97.80507721 108.61574158 98.59330872 109.42306519 99.40542603 C110.65617648 100.64900999 111.88619161 101.89569683 113.10940552 103.14901733 C115.16472119 105.24704955 117.03312289 106.85541526 119.5 108.5 C119.5 109.16 119.5 109.82 119.5 110.5 C120.0775 110.726875 120.655 110.95375 121.25 111.1875 C124.07914534 112.83783478 125.48274596 114.93258577 127.5 117.5 C128.4075 118.221875 129.315 118.94375 130.25 119.6875 C130.9925 120.285625 131.735 120.88375 132.5 121.5 C132.5 122.16 132.5 122.82 132.5 123.5 C133.0878125 123.74878906 133.675625 123.99757813 134.28125 124.25390625 C136.80988593 125.67403805 138.16773363 127.20130218 140 129.4375 C141.81996437 131.65041123 143.40317584 133.42891607 145.71875 135.12890625 C146.3065625 135.58136719 146.894375 136.03382813 147.5 136.5 C147.5 137.16 147.5 137.82 147.5 138.5 C148.16 138.5 148.82 138.5 149.5 138.5 C149.5 139.16 149.5 139.82 149.5 140.5 C150.16 140.5 150.82 140.5 151.5 140.5 C151.5 141.16 151.5 141.82 151.5 142.5 C152.82 143.16 154.14 143.82 155.5 144.5 C155.5 145.16 155.5 145.82 155.5 146.5 C156.16 146.5 156.82 146.5 157.5 146.5 C160.27124482 149.04654929 162.69378573 151.72652458 165 154.6875 C167.48299616 157.48087068 168.96519923 158.49005692 172.5 159.5 C172.5 160.49 172.5 161.48 172.5 162.5 C173.96270571 164.36496576 173.96270571 164.36496576 175.875 166.125 C176.50148438 166.73601562 177.12796875 167.34703125 177.7734375 167.9765625 C179.43619954 169.57494756 179.43619954 169.57494756 181.5 170.5 C181.5 171.16 181.5 171.82 181.5 172.5 C182.16 172.5 182.82 172.5 183.5 172.5 C184.9375 174.1796875 184.9375 174.1796875 186.5 176.375 C188.09356457 178.59802257 189.56234725 180.56234725 191.5 182.5 C193.08978967 188.93087853 192.86929316 194.73332517 189.5 200.5 C187.125 203.125 187.125 203.125 184.5 205.5 C183.675 206.49 182.85 207.48 182 208.5 C178.81012133 212.3278544 175.50930361 215.68816883 171.625 218.8125 C169.19724439 220.78929846 167.2086657 222.92257659 165.1875 225.3125 C162.04448047 229.01057817 158.6265877 232.14046402 154.90625 235.25 C152.87379118 237.15048097 151.12282318 239.05554234 149.31887817 241.16426086 C145.70235744 245.32092627 141.89706813 249.23776579 137.99169922 253.12182617 C137.27694427 253.83672714 136.56218933 254.55162811 135.82577515 255.28819275 C133.48777791 257.62549942 131.14626879 259.95925317 128.8046875 262.29296875 C127.16735266 263.9284354 125.53024076 265.56412529 123.89334106 267.20002747 C119.60017396 271.48939294 115.30401379 275.7757482 111.00720215 280.0614624 C106.63710593 284.42132397 102.26983996 288.78401852 97.90234375 293.14648438 C90.85028686 300.18976951 83.79650618 307.23132266 76.74047852 314.27062988 C75.53224494 315.47604448 74.32419566 316.68164385 73.11637497 317.88747215 C72.08022354 318.92115745 71.04310182 319.95387159 70.0047493 320.98534584 C67.57084963 323.406656 65.27199264 325.87192243 63.0625 328.5 C60.11655507 331.91652257 56.99900923 334.66746872 53.5 337.5 C53.17 338.16 52.84 338.82 52.5 339.5 C51.84 339.5 51.18 339.5 50.5 339.5 C50.24863281 340.07878906 49.99726563 340.65757812 49.73828125 341.25390625 C48.34407086 343.78283677 46.76209642 345.4343046 44.6875 347.4375 C44.02105469 348.08589844 43.35460937 348.73429687 42.66796875 349.40234375 C41.95253906 350.09457031 41.23710937 350.78679687 40.5 351.5 C37.26450331 354.72336863 34.05061348 357.96698917 30.84765625 361.22265625 C29.08607424 363.0027395 27.32435152 364.7826835 25.5625 366.5625 C24.68142578 367.46033203 23.80035156 368.35816406 22.89257812 369.28320312 C10.75146969 381.51525619 10.75146969 381.51525619 0.9375 381.9375 C-7.51178329 381.86598249 -13.14731167 377.92042397 -19.125 372.25 C-21.5 369.5 -21.5 369.5 -21.5 367.5 C-22.82 366.84 -24.14 366.18 -25.5 365.5 C-25.5 364.84 -25.5 364.18 -25.5 363.5 C-26.08910156 363.23832031 -26.67820312 362.97664063 -27.28515625 362.70703125 C-29.61785434 361.4357725 -31.10354368 360.09769469 -32.9375 358.1875 C-33.535625 357.56875 -34.13375 356.95 -34.75 356.3125 C-35.3275 355.714375 -35.905 355.11625 -36.5 354.5 C-37.47791857 353.56119817 -38.45691329 352.62351459 -39.4375 351.6875 C-41.5 349.5 -41.5 349.5 -41.5 347.5 C-42.49 347.83 -43.48 348.16 -44.5 348.5 C-44.56551559 347.94618149 -44.63103119 347.39236298 -44.6985321 346.82176208 C-45.83972492 343.51585522 -47.84263566 341.80625812 -50.32348633 339.35180664 C-50.82439285 338.85206833 -51.32529938 338.35233002 -51.84138489 337.83744812 C-53.49807212 336.18794489 -55.16501839 334.54921789 -56.83203125 332.91015625 C-57.98759814 331.76272897 -59.14242906 330.61456006 -60.29655457 329.46568298 C-63.33822091 326.44113932 -66.38833557 323.4252671 -69.44073486 320.41156006 C-74.31772515 315.59372914 -79.1822015 310.76327329 -84.04596519 305.93209648 C-85.74265693 304.24931031 -87.44314137 302.57043354 -89.14424133 300.8921051 C-90.19235753 299.85402015 -91.24039142 298.81585208 -92.28833008 297.77758789 C-93.20020584 296.87698135 -94.1120816 295.97637482 -95.05158997 295.04847717 C-97.5 292.5 -97.5 292.5 -99.63822937 289.82640076 C-101.52516649 287.30975877 -101.52516649 287.30975877 -104.5 285 C-107.30466359 282.66278034 -109.27578358 280.36995667 -111.5 277.5 C-113.83832768 275.04475594 -116.07297673 272.81161157 -118.8125 270.8125 C-119.369375 270.379375 -119.92625 269.94625 -120.5 269.5 C-120.5 268.84 -120.5 268.18 -120.5 267.5 C-121.16 267.5 -121.82 267.5 -122.5 267.5 C-123.8046875 266.171875 -123.8046875 266.171875 -125.375 264.25 C-129.18659953 259.73434706 -133.33247727 255.63057084 -137.58740234 251.53808594 C-138.92774345 250.22804226 -140.21855875 248.86771234 -141.5 247.5 C-141.5 246.84 -141.5 246.18 -141.5 245.5 C-142.49 245.17 -143.48 244.84 -144.5 244.5 C-144.5 243.84 -144.5 243.18 -144.5 242.5 C-145.16 242.5 -145.82 242.5 -146.5 242.5 C-146.5 241.84 -146.5 241.18 -146.5 240.5 C-147.16 240.5 -147.82 240.5 -148.5 240.5 C-148.5 239.84 -148.5 239.18 -148.5 238.5 C-149.16 238.5 -149.82 238.5 -150.5 238.5 C-150.5 237.84 -150.5 237.18 -150.5 236.5 C-151.49 236.17 -152.48 235.84 -153.5 235.5 C-155.17067133 233.50334402 -156.83752986 231.50348966 -158.5 229.5 C-159.16 229.5 -159.82 229.5 -160.5 229.5 C-161.50540235 227.83658667 -162.50425915 226.16921477 -163.5 224.5 C-165.03345474 222.841743 -166.62062 221.23222538 -168.24609375 219.6640625 C-169.16583984 218.76429688 -170.08558594 217.86453125 -171.03320312 216.9375 C-172.48320239 215.53084643 -173.93562123 214.12680902 -175.39086914 212.72558594 C-189.16165727 199.42900816 -189.16165727 199.42900816 -189.60180664 190.00854492 C-189.19654835 180.0228639 -182.410186 173.65175491 -175.5625 167.1875 C-174.66853516 166.32060547 -173.77457031 165.45371094 -172.85351562 164.56054688 C-170.41275752 162.19589258 -167.95745375 159.84726864 -165.5 157.5 C-162.02758351 154.13052384 -158.87260282 150.61807579 -155.83203125 146.85546875 C-155.39246094 146.40816406 -154.95289063 145.96085938 -154.5 145.5 C-153.84 145.5 -153.18 145.5 -152.5 145.5 C-152.5 144.84 -152.5 144.18 -152.5 143.5 C-150.18640668 140.98809868 -147.84075842 138.76005248 -145.125 136.6875 C-142.13119934 134.19266612 -139.73910233 131.42398093 -137.20703125 128.47265625 C-135.07039419 126.00354478 -132.91056856 123.7039484 -130.5 121.5 C-129.84 121.5 -129.18 121.5 -128.5 121.5 C-128.26232973 120.93784538 -128.02465946 120.37569077 -127.77978706 119.79650116 C-126.20900762 116.97783163 -124.3020519 115.04392805 -122.02340698 112.75598145 C-121.56590124 112.29394459 -121.1083955 111.83190774 -120.63702595 111.35586977 C-119.10503737 109.81123634 -117.56600421 108.27382449 -116.02685547 106.73632812 C-114.92585323 105.62934058 -113.82526217 104.52194396 -112.72505188 103.41416931 C-109.73581775 100.40726529 -106.74012021 97.40688175 -103.74267721 94.40816307 C-101.869056 92.53311991 -99.9968663 90.65665973 -98.12518692 88.77967834 C-91.5917785 82.22776424 -85.05321987 75.68104109 -78.50976562 69.13916016 C-72.41698578 63.04758087 -66.33543711 56.94494779 -60.25908172 50.83698893 C-55.03723987 45.58896138 -49.80768071 40.34870896 -44.57209122 35.11439657 C-41.44733162 31.99014606 -38.32573208 28.86289301 -35.21184921 25.72779846 C-32.28061163 22.77714083 -29.33984801 19.8363164 -26.3916378 16.90262032 C-25.31431002 15.82737724 -24.24035351 14.74874349 -23.17014885 13.66641045 C-9.53329391 -0.11485896 -9.53329391 -0.11485896 0 0 Z " fill="#000000" transform="translate(285.5,320.5)"/>
<path d="M0 0 C3.86997191 3.19693331 7.61274317 6.54971408 10.875 10.375 C10.875 11.035 10.875 11.695 10.875 12.375 C11.44992187 12.61089844 12.02484375 12.84679687 12.6171875 13.08984375 C15.36999605 14.65675381 16.96060756 16.52202188 19 18.9375 C21.56970499 22.1224573 21.56970499 22.1224573 24.875 24.375 C24.875 25.035 24.875 25.695 24.875 26.375 C25.4525 26.6225 26.03 26.87 26.625 27.125 C29.20439979 28.55799988 30.93621592 30.15924676 32.875 32.375 C32.875 33.035 32.875 33.695 32.875 34.375 C34.195 35.035 35.515 35.695 36.875 36.375 C36.875 37.035 36.875 37.695 36.875 38.375 C37.535 38.375 38.195 38.375 38.875 38.375 C40.15898514 39.68010521 40.15898514 39.68010521 41.7131958 41.58407593 C46.95158321 47.73597323 52.73483726 53.34155071 58.46386719 59.02978516 C59.73119213 60.29190873 60.99827015 61.55428029 62.26512146 62.81687927 C64.97997426 65.52183998 67.69628722 68.22532264 70.41368866 70.92772293 C74.71173726 75.20260068 79.0048126 79.4824494 83.29693604 83.76327515 C95.49784526 95.93083509 107.70297128 108.09414318 119.91845703 120.24707031 C126.67525285 126.96934604 133.42668026 133.69696485 140.17217565 140.4305805 C144.4363221 144.68663412 148.70695417 148.93603571 152.98246813 153.18066812 C155.63909813 155.82128771 158.28940368 158.46818401 160.93794441 161.11691475 C162.16604499 162.34259478 163.39672199 163.56569958 164.63016319 164.78600502 C166.3151406 166.45378314 167.99057402 168.13061144 169.66400146 169.80996704 C170.15242043 170.28896536 170.6408394 170.76796369 171.14405894 171.26147711 C176.05281041 176.2285271 178.63740864 181.36605487 178.875 188.375 C178.04166757 197.18451423 171.44713324 202.34588669 165.34594727 208.00317383 C160.51615248 212.50750859 156.18940652 217.38278409 151.86328125 222.36328125 C151.20714844 223.02714844 150.55101562 223.69101562 149.875 224.375 C149.215 224.375 148.555 224.375 147.875 224.375 C147.545 225.365 147.215 226.355 146.875 227.375 C146.215 227.375 145.555 227.375 144.875 227.375 C144.5120721 228.22548715 144.5120721 228.22548715 144.14181232 229.09315586 C142.62479863 231.82567491 140.8198574 233.67587944 138.60600281 235.88450623 C137.26224579 237.23238724 137.26224579 237.23238724 135.89134216 238.60749817 C134.89599679 239.59576553 133.90055596 240.58393675 132.9050293 241.57202148 C131.85824347 242.61824301 130.81189815 243.66490543 129.76596069 244.7119751 C126.9252539 247.55325606 124.07841825 250.38832384 121.23045707 253.22233081 C118.24900226 256.19127326 115.27321942 259.16588965 112.29682922 262.13990784 C106.65446158 267.77605625 101.00701718 273.40708918 95.35773355 279.03630453 C88.9470526 285.42469813 82.54198617 291.81870798 76.13741815 298.21322906 C65.18440338 309.14886878 54.22722689 320.0803238 43.26524353 331.00697327 C42.36094604 331.90838043 41.45664856 332.8097876 40.52494812 333.73851013 C39.74309993 334.51776069 38.96125174 335.29701124 38.15571117 336.09987545 C37.40307649 336.85066655 36.6504418 337.60145765 35.875 338.375 C34.99897031 339.2455153 34.12294062 340.1160306 33.22036457 341.01292515 C30.8997535 343.35007013 28.72923399 345.77033733 26.5625 348.25 C23.25108447 351.95965826 19.83987261 355.21312229 16.03125 358.39453125 C13.82935063 360.41692795 11.87201401 362.5858109 9.90576172 364.83544922 C4.31842793 371.20295257 -1.22342825 377.33354616 -9.9140625 378.8671875 C-17.14013554 379.20559863 -22.78308818 377.17063291 -28.34292603 372.5196228 C-30.75939305 370.23438136 -33.10645346 367.89575045 -35.4375 365.5234375 C-36.29182617 364.66819489 -37.14615234 363.81295227 -38.02636719 362.93179321 C-39.81937874 361.13276581 -41.60755366 359.3289063 -43.39111328 357.52050781 C-46.13333785 354.74155047 -48.89145273 351.97915089 -51.65234375 349.21875 C-53.3941799 347.46709072 -55.13509859 345.71451855 -56.875 343.9609375 C-57.70298096 343.1307309 -58.53096191 342.30052429 -59.3840332 341.44515991 C-60.139021 340.67741241 -60.89400879 339.90966492 -61.671875 339.11865234 C-62.34057617 338.44232758 -63.00927734 337.76600281 -63.69824219 337.06918335 C-65.125 335.375 -65.125 335.375 -65.125 333.375 C-65.785 333.375 -66.445 333.375 -67.125 333.375 C-67.125 332.715 -67.125 332.055 -67.125 331.375 C-68.115 331.045 -69.105 330.715 -70.125 330.375 C-71.5546875 328.921875 -71.5546875 328.921875 -73 327.125 C-75.52546853 324.00611536 -78.27773625 321.19598148 -81.125 318.375 C-81.74427368 317.7606308 -82.36354736 317.1462616 -83.00158691 316.51327515 C-84.44505998 315.08147158 -85.88878678 313.64992379 -87.3327179 312.21858215 C-90.66214152 308.91581908 -93.98636985 305.60784845 -97.31030273 302.29956055 C-99.06895575 300.55104009 -100.82938855 298.804308 -102.59155273 297.05932617 C-105.13471231 294.54029031 -107.67147763 292.0149698 -110.20703125 289.48828125 C-111.00067581 288.70495926 -111.79432037 287.92163727 -112.61201477 287.11457825 C-113.33664413 286.39009995 -114.0612735 285.66562164 -114.80786133 284.91918945 C-115.45008133 284.28141068 -116.09230133 283.6436319 -116.75398254 282.98652649 C-118.125 281.375 -118.125 281.375 -118.125 279.375 C-118.785 279.375 -119.445 279.375 -120.125 279.375 C-124.89244186 275.07267442 -124.89244186 275.07267442 -126.125 271.375 C-126.785 271.375 -127.445 271.375 -128.125 271.375 C-129.34674072 270.13078308 -129.34674072 270.13078308 -130.85253906 268.27416992 C-136.03771218 262.18343347 -141.76419926 256.64168239 -147.44075775 251.01464272 C-149.52004158 248.95291583 -151.59561904 246.88752197 -153.67022705 244.8210907 C-159.56379082 238.95184509 -165.46308554 233.08838431 -171.36669922 227.22924805 C-174.99054041 223.6322008 -178.60948551 220.03028734 -182.2254715 216.42534447 C-183.59988007 215.05713332 -184.97618192 213.69082126 -186.35442352 212.32647133 C-188.27830789 210.42182507 -190.19593239 208.51107714 -192.11230469 206.59887695 C-192.67961807 206.04032516 -193.24693146 205.48177338 -193.83143616 204.90629578 C-201.125 197.59458264 -201.125 197.59458264 -201.125 193.375 C-201.785 193.045 -202.445 192.715 -203.125 192.375 C-203.23594336 191.04367968 -203.31188444 189.7094432 -203.375 188.375 C-203.44460938 187.26125 -203.44460938 187.26125 -203.515625 186.125 C-202.50141709 178.98497631 -198.093201 173.75765339 -193.09693909 168.86592102 C-192.49676702 168.26233125 -191.89659495 167.65874149 -191.27823585 167.03686112 C-189.28022041 165.03229779 -187.26832429 163.04229737 -185.25610352 161.05200195 C-183.81450913 159.61153677 -182.37379677 158.17018841 -180.93389893 156.72802734 C-177.03167262 152.82465528 -173.11725078 148.93372559 -169.2005055 145.04492974 C-165.09971825 140.96920171 -161.01030716 136.88209143 -156.91966248 132.79618835 C-149.17056548 125.05951648 -141.41133374 117.33309249 -133.64839166 109.6103155 C-124.82989756 100.83646904 -116.02269795 92.05132287 -107.21646607 83.26517165 C-92.16356499 68.24699125 -77.10222781 53.23731503 -62.03147888 38.23704529 C-61.07711698 37.28712095 -61.07711698 37.28712095 -60.10347503 36.31800622 C-58.93544946 35.15545896 -57.76736524 33.99297062 -56.59920603 32.83055764 C-50.46683975 26.74723756 -50.46683975 26.74723756 -44.4375 20.5625 C-42.125 18.375 -42.125 18.375 -40.125 18.375 C-39.7846875 17.5396875 -39.7846875 17.5396875 -39.4375 16.6875 C-38.12513787 14.37524292 -36.65324261 12.7420747 -34.72265625 10.9296875 C-33.49356419 9.73365171 -32.32424837 8.47596699 -31.18359375 7.1953125 C-22.15413802 -2.65793973 -12.30905012 -6.40070606 0 0 Z " fill="#000000" transform="translate(750.125,323.625)"/>
<path d="M0 0 C2.49288235 2.19412827 4.90656722 4.41661487 7 7 C7 7.66 7 8.32 7 9 C7.57234375 9.2475 8.1446875 9.495 8.734375 9.75 C11.35010611 11.19316199 13.14773456 12.88216222 15.25 15 C15.95640625 15.70125 16.6628125 16.4025 17.390625 17.125 C19 19 19 19 19 21 C19.556875 21.20625 20.11375 21.4125 20.6875 21.625 C23.24663995 23.14665078 24.68900849 24.97587189 26.515625 27.29296875 C28.20420928 29.23484068 30.0376277 30.83640995 32 32.5 C34.53632802 34.65348606 36.78248119 36.78721046 38.875 39.375 C40.73102809 42.03793194 40.73102809 42.03793194 43 43 C43 43.66 43 44.32 43 45 C43.639375 45.268125 44.27875 45.53625 44.9375 45.8125 C47 47 47 47 48 50 C48.99 50.33 49.98 50.66 51 51 C54.13003705 53.82466759 56.13563719 56.27127437 58 60 C58.99 60.33 59.98 60.66 61 61 C61 61.66 61 62.32 61 63 C61.99 63.33 62.98 63.66 64 64 C65.35827971 65.64639965 66.69254251 67.31295807 68 69 C68.66 69.33 69.32 69.66 70 70 C70 70.66 70 71.32 70 72 C70.66 72 71.32 72 72 72 C73.34423339 73.65788785 74.67618483 75.32576317 76 77 C77.11375 77.8353125 77.11375 77.8353125 78.25 78.6875 C78.8275 79.120625 79.405 79.55375 80 80 C80 80.66 80 81.32 80 82 C81.32 82.66 82.64 83.32 84 84 C84 84.66 84 85.32 84 86 C84.57621094 86.24878906 85.15242188 86.49757813 85.74609375 86.75390625 C88.32156712 88.17778148 90.02011557 89.82428143 92.0625 91.9375 C92.73410156 92.62714844 93.40570312 93.31679687 94.09765625 94.02734375 C94.72542969 94.67832031 95.35320312 95.32929688 96 96 C96.57621094 96.53753906 97.15242188 97.07507813 97.74609375 97.62890625 C99 99 99 99 99 101 C99.8353125 101.309375 99.8353125 101.309375 100.6875 101.625 C103.28677157 103.17051283 104.84567422 105.06864558 106.71484375 107.41796875 C109.41759879 110.74506841 112.43551763 113.56095816 115.8125 116.1875 C116.534375 116.785625 117.25625 117.38375 118 118 C118 118.66 118 119.32 118 120 C118.59167969 120.25265625 119.18335938 120.5053125 119.79296875 120.765625 C122.26013061 122.14548898 123.53711829 123.56361107 125.3125 125.75 C128.18891945 129.17430887 131.20447149 132.01143032 134.71484375 134.7734375 C135.13894531 135.17820313 135.56304688 135.58296875 136 136 C136 136.66 136 137.32 136 138 C136.99 138.33 137.98 138.66 139 139 C140.4296875 140.453125 140.4296875 140.453125 141.875 142.25 C145.89612189 147.21597566 150.54787607 151.53938517 155.16015625 155.94921875 C156.62807485 157.37285866 158.0930885 158.7994171 159.55688477 160.22729492 C160.55709219 161.19733556 161.56261923 162.16192236 162.57348633 163.12084961 C169.13803115 169.35818304 175.49974493 175.60499841 176.14477539 185.14013672 C175.53296709 193.79211723 169.8526539 199.58727736 164.02957153 205.34465027 C163.32801622 206.05017999 162.62646091 206.7557097 161.90364635 207.48261911 C159.56018486 209.83567499 157.20619144 212.17789559 154.85205078 214.52026367 C153.16600625 216.20873708 151.48060776 217.89785582 149.79580688 219.58757019 C145.69859569 223.69320495 141.59446266 227.791821 137.48695816 231.88715597 C132.70063765 236.65982556 127.92198875 241.44014596 123.14354645 246.22070102 C114.61579427 254.75164 106.080646 263.27514107 97.54150391 271.79467773 C89.26132396 280.05585188 80.98713112 288.32296415 72.71923828 296.59643555 C63.70860612 305.61312945 54.69485982 314.6266877 45.67551792 323.63467008 C44.71328283 324.59569792 43.75104837 325.55672639 42.78881454 326.51775551 C42.3154118 326.99055471 41.84200906 327.46335392 41.35426078 327.95048037 C38.02310562 331.27776111 34.6940852 334.60716857 31.36581802 337.93733788 C26.8839914 342.4210483 22.39719825 346.89972935 17.90652084 351.37457466 C16.25926946 353.01758413 14.61370979 354.66229168 12.9699707 356.308815 C10.72603803 358.55597146 8.47604256 360.79687761 6.22439575 363.03630066 C5.57535817 363.68911756 4.92632059 364.34193447 4.25761521 365.0145337 C-1.15285258 370.37315516 -6.25382739 375.08224813 -14.25 375.25 C-20.02213725 375.16566683 -24.18751115 373.59145363 -28.5625 369.75 C-29.84461441 368.30351195 -31.12265476 366.8526733 -32.359375 365.3671875 C-35.63915552 361.43497752 -39.08482098 358.07689856 -42.984375 354.7578125 C-46.15051442 351.9966444 -49.06109953 348.9983389 -52 346 C-54.61371111 343.37322033 -57.24023628 340.76144975 -59.89453125 338.17578125 C-60.86721196 337.2213791 -61.83986808 336.26695188 -62.8125 335.3125 C-63.31458984 334.82716797 -63.81667969 334.34183594 -64.33398438 333.84179688 C-65.59417273 332.59875394 -66.80191044 331.30300108 -68 330 C-68 329.34 -68 328.68 -68 328 C-68.66 328 -69.32 328 -70 328 C-70 327.34 -70 326.68 -70 326 C-70.61875 325.7525 -71.2375 325.505 -71.875 325.25 C-74.40358627 323.76259631 -74.71839004 322.56321991 -76 320 C-77.33036968 319.32743868 -78.6640721 318.66145209 -80 318 C-81.56811523 316.65893555 -81.56811523 316.65893555 -83.05859375 315.13671875 C-83.60966797 314.57919922 -84.16074219 314.02167969 -84.72851562 313.44726562 C-85.29248047 312.86654297 -85.85644531 312.28582031 -86.4375 311.6875 C-86.99759766 311.11837891 -87.55769531 310.54925781 -88.13476562 309.96289062 C-89.23839747 308.84122979 -90.3402481 307.7178132 -91.44018555 306.5925293 C-94.18770343 303.78738621 -96.93847895 300.98831271 -99.8125 298.3125 C-101 297 -101 297 -101 295 C-101.58247498 294.7421875 -102.16494995 294.484375 -102.76507568 294.21875 C-105.19063451 292.8960431 -106.80514441 291.44871546 -108.75878906 289.5 C-109.47923401 288.78585937 -110.19967896 288.07171875 -110.94195557 287.3359375 C-112.09217194 286.17964844 -112.09217194 286.17964844 -113.265625 285 C-114.05902283 284.20851563 -114.85242065 283.41703125 -115.66986084 282.6015625 C-117.34324054 280.92954263 -119.01410181 279.25499903 -120.68261719 277.578125 C-123.24713597 275.00287602 -125.82216989 272.43848948 -128.3984375 269.875 C-130.02147527 268.25064116 -131.64389281 266.62566231 -133.265625 265 C-134.04053284 264.22914063 -134.81544067 263.45828125 -135.61383057 262.6640625 C-136.32166687 261.94992187 -137.02950317 261.23578125 -137.75878906 260.5 C-138.38626038 259.8709375 -139.01373169 259.241875 -139.66021729 258.59375 C-141 257 -141 257 -141 255 C-141.57085831 254.75445877 -142.14171661 254.50891754 -142.72987366 254.25593567 C-145.39027409 252.78408288 -147.17810178 251.06181734 -149.32202148 248.9050293 C-150.16647324 248.06042648 -151.01092499 247.21582367 -151.88096619 246.34562683 C-152.78520828 245.43106216 -153.68945038 244.5164975 -154.62109375 243.57421875 C-155.56703014 242.62454713 -156.51341284 241.67531987 -157.46022034 240.72651672 C-159.95005745 238.22905574 -162.43383779 235.7256551 -164.91638184 233.22094727 C-167.43090269 230.6860455 -169.95101118 228.15671305 -172.47070312 225.62695312 C-176.95828815 221.12007015 -181.4410469 216.60843347 -185.91940308 212.09237671 C-187.59941467 210.40285334 -189.28729721 208.72218197 -190.98071289 207.04614258 C-193.17446879 204.82321087 -195.05772281 202.44351002 -197 200 C-197.70125 199.319375 -198.4025 198.63875 -199.125 197.9375 C-202.47066535 194.48031247 -203.30682045 191.52256822 -203.375 186.75 C-203.20893854 178.43585605 -199.53193752 172.93671344 -194 167 C-192.34808509 165.64843325 -190.68477344 164.31037934 -189 163 C-188.505 162.01 -188.505 162.01 -188 161 C-187.34 161 -186.68 161 -186 161 C-185.7525 160.4225 -185.505 159.845 -185.25 159.25 C-183.81700012 156.67060021 -182.21575324 154.93878408 -180 153 C-179.34 153 -178.68 153 -178 153 C-177.7525 152.38125 -177.505 151.7625 -177.25 151.125 C-175.76259631 148.59641373 -174.56321991 148.28160996 -172 147 C-171.73501709 146.43097961 -171.47003418 145.86195923 -171.19702148 145.2756958 C-169.58490683 142.21085312 -167.28161949 140.00290794 -164.84765625 137.58886719 C-164.32388397 137.06159027 -163.80011169 136.53431335 -163.26046753 135.99105835 C-161.5327998 134.25460807 -159.7979431 132.52555188 -158.0625 130.796875 C-156.85916341 129.59219117 -155.65612385 128.38721058 -154.45336914 127.1819458 C-151.93471796 124.66034841 -149.41249015 122.14239861 -146.88769531 119.62695312 C-143.64580665 116.39648316 -140.41301113 113.15708548 -137.18281555 109.91492844 C-134.70208746 107.4269891 -132.21663514 104.94381354 -129.72970581 102.46207428 C-128.53527843 101.26898417 -127.34234349 100.07439807 -126.15090942 98.87831879 C-124.48950026 97.21185385 -122.82185609 95.55189607 -121.15234375 93.89355469 C-120.65773651 93.39489899 -120.16312927 92.89624329 -119.65353394 92.38247681 C-116.22853222 89 -116.22853222 89 -114 89 C-113.7628125 88.43829102 -113.525625 87.87658203 -113.28125 87.29785156 C-111.70680643 84.47417342 -109.78315455 82.52385158 -107.5 80.234375 C-106.613125 79.34492188 -105.72625 78.45546875 -104.8125 77.5390625 C-103.884375 76.61867188 -102.95625 75.69828125 -102 74.75 C-101.071875 73.81414062 -100.14375 72.87828125 -99.1875 71.9140625 C-98.300625 71.02976562 -97.41375 70.14546875 -96.5 69.234375 C-95.6853125 68.42194336 -94.870625 67.60951172 -94.03125 66.77246094 C-92 65 -92 65 -90 65 C-89.78821106 64.46354858 -89.57642212 63.92709717 -89.35821533 63.37438965 C-87.48668295 60.10263516 -84.92266696 57.64447469 -82.26855469 55.00976562 C-81.68293259 54.42063889 -81.09731049 53.83151215 -80.49394226 53.22453308 C-78.55825162 51.28004665 -76.61534358 49.34296032 -74.671875 47.40625 C-73.32117941 46.05420679 -71.97078081 44.70186683 -70.6206665 43.34924316 C-67.78925353 40.51488153 -64.95425502 37.68416851 -62.11669922 34.85595703 C-58.4873638 31.23799406 -54.86705143 27.61115654 -51.24940109 23.98151398 C-48.4614227 21.18629145 -45.6686769 18.39587123 -42.87448883 15.6068573 C-41.53823437 14.2719334 -40.20345404 12.93553216 -38.87020111 11.59761047 C-37.00128549 9.72359015 -35.12603268 7.85614356 -33.24902344 5.99023438 C-32.43050148 5.16563972 -32.43050148 5.16563972 -31.59544373 4.3243866 C-22.29536819 -4.87455699 -11.31394193 -8.69904917 0 0 Z " fill="#000000" transform="translate(526,103)"/>
<path d="M0 0 C1.01900391 -0.02900391 1.01900391 -0.02900391 2.05859375 -0.05859375 C9.40634303 1.39720057 14.59455919 5.8852073 19.6875 11.1015625 C20.31986572 11.73484467 20.95223145 12.36812683 21.60375977 13.02059937 C22.92599975 14.34883948 24.2434188 15.6818949 25.55615234 17.01953125 C27.57407583 19.07428712 29.60787183 21.1122673 31.64453125 23.1484375 C32.93064072 24.4443672 34.21583113 25.74120979 35.5 27.0390625 C36.10924316 27.65053131 36.71848633 28.26200012 37.34619141 28.89199829 C41.5625 33.20528015 41.5625 33.20528015 41.5625 35.4375 C42.14 35.664375 42.7175 35.89125 43.3125 36.125 C46.12677613 37.76666107 47.58987733 39.87309053 49.5625 42.4375 C50.2225 42.7675 50.8825 43.0975 51.5625 43.4375 C51.5625 44.0975 51.5625 44.7575 51.5625 45.4375 C52.5525 45.7675 53.5425 46.0975 54.5625 46.4375 C56.07044983 47.96792603 56.07044983 47.96792603 57.68774414 49.93603516 C61.73573365 54.70369816 66.10643596 59.07281418 70.55859375 63.4609375 C72.26770628 65.15742298 73.97668695 66.85404132 75.68554688 68.55078125 C78.35905742 71.1993242 81.034152 73.84623075 83.71166992 76.49072266 C86.31078624 79.05982281 88.90380229 81.63495374 91.49609375 84.2109375 C92.30533798 85.00672211 93.11458221 85.80250671 93.948349 86.62240601 C94.68654373 87.35722198 95.42473846 88.09203796 96.18530273 88.84912109 C97.16623146 89.81886368 97.16623146 89.81886368 98.16697693 90.80819702 C99.5625 92.4375 99.5625 92.4375 99.5625 94.4375 C100.119375 94.664375 100.67625 94.89125 101.25 95.125 C107.60231437 98.73036762 113.02944858 105.75765883 115.3046875 112.703125 C116.34039179 118.74825617 114.72980976 123.29825906 111.5625 128.4375 C108.1482394 132.41214938 104.4148291 136.01642626 100.625 139.625 C98.65300024 141.53048834 96.6876157 143.44272472 94.72265625 145.35546875 C93.80887207 146.24282715 92.89508789 147.13018555 91.95361328 148.04443359 C89.28056585 150.71966445 86.93058789 153.49374433 84.5625 156.4375 C82.9075966 158.11584749 81.23962489 159.7813576 79.5625 161.4375 C78.81364029 162.1841391 78.06478058 162.9307782 77.29322815 163.70004272 C76.52300827 164.4672464 75.75278839 165.23445007 74.95922852 166.02490234 C70.59111113 170.37701984 66.22520132 174.73134001 61.86090183 179.087286 C59.23077629 181.7121926 56.59972107 184.33615331 53.96655273 186.95800781 C51.40389434 189.50973282 48.84374817 192.06395444 46.28526115 194.6198616 C45.31702257 195.58626832 44.347912 196.55180231 43.37787056 197.51639938 C38.20870026 202.65768969 33.22515141 207.83175345 28.5625 213.4375 C26.3125 215.875 26.3125 215.875 24.5625 217.4375 C23.9025 217.4375 23.2425 217.4375 22.5625 217.4375 C22.294375 218.076875 22.02625 218.71625 21.75 219.375 C20.5625 221.4375 20.5625 221.4375 17.5625 222.4375 C16.88599152 223.76586685 16.22021668 225.0997291 15.5625 226.4375 C10.61319676 230.84083693 5.13972708 232.82046363 -1.4375 232.4375 C-10.09762708 230.35196561 -15.50621746 225.2137687 -21.59716797 219.0065918 C-22.56624945 218.04073598 -23.53663003 217.07618213 -24.50819397 216.11282349 C-27.12286802 213.51258677 -29.71857326 210.89416152 -32.31069326 208.27146506 C-35.03614336 205.51949758 -37.77756783 202.78352469 -40.51687622 200.04536438 C-45.11139417 195.44804461 -49.69419156 190.839303 -54.26953125 186.22290039 C-59.54919656 180.89602497 -64.84441263 175.58502667 -70.14883125 170.28280705 C-75.81327144 164.6203975 -81.46621318 158.94661418 -87.11585474 153.26944375 C-88.73761659 151.64130762 -90.36148217 150.01529551 -91.98583603 148.38974571 C-94.54244035 145.83011431 -97.09120998 143.26291907 -99.63426018 140.68982315 C-101.00733933 139.30389035 -102.38766586 137.92514934 -103.76823425 136.54667664 C-109.53644992 130.6888982 -114.94472488 125.18114369 -115.5078125 116.51953125 C-115.26255535 109.2571945 -112.22069442 104.83604368 -107.30078125 99.65625 C-106.77835846 99.09875565 -106.25593567 98.54126129 -105.71768188 97.96687317 C-99.39766348 91.26528893 -92.91102313 84.72494974 -86.39746094 78.2121582 C-84.27511873 76.08757934 -82.16097095 73.95504676 -80.046875 71.82226562 C-78.69579936 70.46826402 -77.34425518 69.11472973 -75.9921875 67.76171875 C-75.36206757 67.1244133 -74.73194763 66.48710785 -74.08273315 65.83049011 C-69.66638726 61.4375 -69.66638726 61.4375 -67.4375 61.4375 C-67.21213058 60.88812271 -66.98676117 60.33874542 -66.75456238 59.77272034 C-65.05479685 56.75894734 -62.79304539 54.4979959 -60.36450195 52.07397461 C-59.84876114 51.55151657 -59.33302032 51.02905853 -58.801651 50.49076843 C-57.09831117 48.76846116 -55.38755383 47.05376749 -53.67578125 45.33984375 C-52.48456805 44.14220116 -51.29350478 42.94440943 -50.10258484 41.74647522 C-47.60523418 39.23715449 -45.10378851 36.73199774 -42.59985352 34.22924805 C-39.3997759 31.02937346 -36.21366601 27.81597596 -33.03097248 24.59882259 C-30.57477609 22.12033285 -28.1094858 19.65104357 -25.64159203 17.18420601 C-24.46347243 16.00373358 -23.28857763 14.82003327 -22.11705971 13.63300896 C-20.47326222 11.9695054 -18.8171366 10.31928301 -17.1574707 8.67163086 C-16.68083984 8.18376099 -16.20420898 7.69589111 -15.71313477 7.1932373 C-11.36471514 2.9239308 -6.23842778 0.01179287 0 0 Z " fill="#010101" transform="translate(511.4375,611.5625)"/>
<path d="M0 0 C0.99 0.495 0.99 0.495 2 1 C-56.08 59.08 -114.16 117.16 -174 177 C-174 174 -174 174 -172.33520508 171.99462891 C-171.57103271 171.24616699 -170.80686035 170.49770508 -170.01953125 169.7265625 C-169.18486328 168.9015625 -168.35019531 168.0765625 -167.49023438 167.2265625 C-166.60658203 166.36804688 -165.72292969 165.50953125 -164.8125 164.625 C-163.94818359 163.77421875 -163.08386719 162.9234375 -162.19335938 162.046875 C-159.80064882 159.69266783 -157.40132014 157.34541923 -155 155 C-151.54133638 151.61653607 -148.37319662 148.1188106 -145.33203125 144.35546875 C-144.89246094 143.90816406 -144.45289063 143.46085938 -144 143 C-143.34 143 -142.68 143 -142 143 C-142 142.34 -142 141.68 -142 141 C-139.68640668 138.48809868 -137.34075842 136.26005248 -134.625 134.1875 C-131.63119934 131.69266612 -129.23910233 128.92398093 -126.70703125 125.97265625 C-124.57039419 123.50354478 -122.41056856 121.2039484 -120 119 C-119.34 119 -118.68 119 -118 119 C-117.76302367 118.43812296 -117.52604734 117.87624592 -117.28188992 117.2973423 C-115.70318435 114.46806108 -113.78311982 112.53437199 -111.48976135 110.24252319 C-111.02872778 109.77907521 -110.56769421 109.31562722 -110.09268993 108.83813536 C-108.54901394 107.28883059 -106.99830281 105.74676824 -105.44750977 104.20458984 C-104.33837347 103.09438047 -103.22967031 101.98373825 -102.12136841 100.87269592 C-99.11148726 97.85796772 -96.09539333 94.84952638 -93.07801938 91.84229994 C-89.9224215 88.6954845 -86.7720957 85.54339928 -83.62107849 82.39199829 C-78.3291585 77.10101484 -73.03337974 71.81391884 -67.73510742 66.52929688 C-61.60719305 60.41711193 -55.48452483 54.29971223 -49.36483723 48.17929113 C-43.48010011 42.2939439 -37.59251124 36.41145866 -31.70332146 30.53056717 C-29.1958294 28.02660796 -26.68919038 25.52179934 -24.18319893 23.01633835 C-21.23318573 20.06732887 -18.28063806 17.12088026 -15.3260994 14.17640495 C-14.24124127 13.09447026 -13.15722972 12.01168596 -12.07412148 10.9279995 C-10.59745419 9.45084221 -9.11775487 7.97679118 -7.63722229 6.50350952 C-6.80928445 5.67724752 -5.98134661 4.85098553 -5.12831974 3.99968529 C-3 2 -3 2 0 0 Z " fill="#252424" transform="translate(275,323)"/>
<path d="M0 0 C0.33 0.99 0.66 1.98 1 3 C-54.11 58.11 -109.22 113.22 -166 170 C-166 166.00102358 -164.64683965 164.93298448 -162 162 C-160.34466005 160.65263027 -158.67987227 159.31665664 -157 158 C-156.505 157.01 -156.505 157.01 -156 156 C-155.34 156 -154.68 156 -154 156 C-153.7525 155.4225 -153.505 154.845 -153.25 154.25 C-151.81700012 151.67060021 -150.21575324 149.93878408 -148 148 C-147.34 148 -146.68 148 -146 148 C-145.7525 147.38125 -145.505 146.7625 -145.25 146.125 C-143.76259631 143.59641373 -142.56321991 143.28160996 -140 142 C-139.73501709 141.43097961 -139.47003418 140.86195923 -139.19702148 140.2756958 C-137.58490683 137.21085312 -135.28161949 135.00290794 -132.84765625 132.58886719 C-132.32388397 132.06159027 -131.80011169 131.53431335 -131.26046753 130.99105835 C-129.5327998 129.25460807 -127.7979431 127.52555188 -126.0625 125.796875 C-124.85916341 124.59219117 -123.65612385 123.38721058 -122.45336914 122.1819458 C-119.93471796 119.66034841 -117.41249015 117.14239861 -114.88769531 114.62695312 C-111.64580665 111.39648316 -108.41301113 108.15708548 -105.18281555 104.91492844 C-102.70208746 102.4269891 -100.21663514 99.94381354 -97.72970581 97.46207428 C-96.53527843 96.26898417 -95.34234349 95.07439807 -94.15090942 93.87831879 C-92.48950026 92.21185385 -90.82185609 90.55189607 -89.15234375 88.89355469 C-88.65773651 88.39489899 -88.16312927 87.89624329 -87.65353394 87.38247681 C-84.22853222 84 -84.22853222 84 -82 84 C-81.7628125 83.43829102 -81.525625 82.87658203 -81.28125 82.29785156 C-79.70680643 79.47417342 -77.78315455 77.52385158 -75.5 75.234375 C-74.613125 74.34492188 -73.72625 73.45546875 -72.8125 72.5390625 C-71.884375 71.61867188 -70.95625 70.69828125 -70 69.75 C-69.071875 68.81414062 -68.14375 67.87828125 -67.1875 66.9140625 C-66.300625 66.02976562 -65.41375 65.14546875 -64.5 64.234375 C-63.6853125 63.42194336 -62.870625 62.60951172 -62.03125 61.77246094 C-60 60 -60 60 -58 60 C-57.78070831 59.45539124 -57.56141663 58.91078247 -57.33547974 58.34967041 C-55.56205882 55.22947731 -53.16650442 52.90417021 -50.63232422 50.40527344 C-50.08583221 49.85848938 -49.53934021 49.31170532 -48.97628784 48.74835205 C-47.17378907 46.94724351 -45.36431604 45.15331753 -43.5546875 43.359375 C-42.30157633 42.10999505 -41.04890681 40.86017199 -39.79666138 39.60992432 C-36.50324045 36.32413128 -33.20385709 33.0443893 -29.90319824 29.76586914 C-26.53471006 26.41785747 -23.1718924 23.06416093 -19.80859375 19.7109375 C-13.21126824 13.13504704 -6.60763017 6.56553484 0 0 Z " fill="#252524" transform="translate(494,108)"/>
<path d="M0 0 C0.99 0.495 0.99 0.495 2 1 C1.01 1.495 1.01 1.495 0 2 C0 1.34 0 0.68 0 0 Z " fill="#373535" transform="translate(400,712)"/>
<path d="M0 0 C0.99 0.495 0.99 0.495 2 1 C1.01 1.495 1.01 1.495 0 2 C0 1.34 0 0.68 0 0 Z " fill="#32302F" transform="translate(416,696)"/>
<path d="" fill="#32302F" transform="translate(0,0)"/>
<path d="M0 0 C0.66 0.66 1.32 1.32 2 2 C1.34 2 0.68 2 0 2 C0 1.34 0 0.68 0 0 Z " fill="#33302F" transform="translate(488,464)"/>
<path d="M0 0 C3 1 3 1 3 1 Z " fill="#3D3A3B" transform="translate(293,320)"/>
<path d="" fill="#3C3939" transform="translate(0,0)"/>
<path d="M0 0 C2 1 2 1 2 1 Z " fill="#343332" transform="translate(504,843)"/>
<path d="" fill="#292825" transform="translate(0,0)"/>
<path d="M0 0 C2 1 2 1 2 1 Z " fill="#3A3734" transform="translate(235,662)"/>
<path d="" fill="#373433" transform="translate(0,0)"/>
<path d="M0 0 C2 1 2 1 2 1 Z " fill="#31302D" transform="translate(168,595)"/>
<path d="M0 0 C2 1 2 1 2 1 Z " fill="#2E2D2D" transform="translate(884,567)"/>
<path d="" fill="#3A3838" transform="translate(0,0)"/>
<path d="" fill="#393737" transform="translate(0,0)"/>
<path d="" fill="#332F30" transform="translate(0,0)"/>
<path d="M0 0 C2 1 2 1 2 1 Z " fill="#3B393A" transform="translate(144,448)"/>
<path d="M0 0 C2 1 2 1 2 1 Z " fill="#2B2928" transform="translate(458,435)"/>
<path d="M0 0 C2 1 2 1 2 1 Z " fill="#2E292A" transform="translate(456,433)"/>
<path d="" fill="#2B2928" transform="translate(0,0)"/>
<path d="" fill="#2B2928" transform="translate(0,0)"/>
<path d="M0 0 C2 1 2 1 2 1 Z " fill="#2C2A29" transform="translate(400,379)"/>
<path d="M0 0 C2 1 2 1 2 1 Z " fill="#2C2B29" transform="translate(400,377)"/>
<path d="M0 0 C2 1 2 1 2 1 Z " fill="#302D2E" transform="translate(669,376)"/>
<path d="" fill="#2B2A28" transform="translate(0,0)"/>
<path d="M0 0 C2 1 2 1 2 1 Z " fill="#302C2A" transform="translate(384,363)"/>
<path d="" fill="#312E2E" transform="translate(0,0)"/>
<path d="M0 0 C2 1 2 1 2 1 Z " fill="#302C2C" transform="translate(360,337)"/>
<path d="" fill="#302E2D" transform="translate(0,0)"/>
<path d="M0 0 C2 1 2 1 2 1 Z " fill="#3C3A3B" transform="translate(320,283)"/>
<path d="M0 0 C2 1 2 1 2 1 Z " fill="#42403F" transform="translate(510,96)"/>
<path d="" fill="#242323" transform="translate(0,0)"/>
<path d="" fill="#373433" transform="translate(0,0)"/>
<path d="" fill="#363432" transform="translate(0,0)"/>
<path d="" fill="#333331" transform="translate(0,0)"/>
<path d="" fill="#343333" transform="translate(0,0)"/>
<path d="" fill="#373534" transform="translate(0,0)"/>
<path d="" fill="#383435" transform="translate(0,0)"/>
<path d="" fill="#32302F" transform="translate(0,0)"/>
<path d="" fill="#323131" transform="translate(0,0)"/>
<path d="" fill="#33312F" transform="translate(0,0)"/>
<path d="" fill="#302E2D" transform="translate(0,0)"/>
<path d="" fill="#312E2D" transform="translate(0,0)"/>
<path d="" fill="#302D2E" transform="translate(0,0)"/>
<path d="" fill="#312D2C" transform="translate(0,0)"/>
<path d="" fill="#353532" transform="translate(0,0)"/>
<path d="" fill="#31302F" transform="translate(0,0)"/>
<path d="" fill="#343032" transform="translate(0,0)"/>
<path d="" fill="#302E2E" transform="translate(0,0)"/>
<path d="" fill="#302E2E" transform="translate(0,0)"/>
<path d="" fill="#312E2E" transform="translate(0,0)"/>
<path d="" fill="#312F2C" transform="translate(0,0)"/>
<path d="" fill="#353333" transform="translate(0,0)"/>
<path d="" fill="#3B3938" transform="translate(0,0)"/>
<path d="" fill="#3B3A3A" transform="translate(0,0)"/>
<path d="" fill="#3A3836" transform="translate(0,0)"/>
<path d="" fill="#383636" transform="translate(0,0)"/>
<path d="" fill="#3A3937" transform="translate(0,0)"/>
<path d="" fill="#3C3739" transform="translate(0,0)"/>
<path d="" fill="#3F3E3E" transform="translate(0,0)"/>
<path d="" fill="#3D3D3B" transform="translate(0,0)"/>
<path d="" fill="#393938" transform="translate(0,0)"/>
<path d="" fill="#403E3C" transform="translate(0,0)"/>
<path d="" fill="#3E3B3A" transform="translate(0,0)"/>
<path d="" fill="#3E3D3B" transform="translate(0,0)"/>
<path d="" fill="#3C3B38" transform="translate(0,0)"/>
<path d="" fill="#383837" transform="translate(0,0)"/>
<path d="" fill="#3A3B3A" transform="translate(0,0)"/>
<path d="" fill="#2F2B2D" transform="translate(0,0)"/>
<path d="" fill="#363534" transform="translate(0,0)"/>
<path d="" fill="#363536" transform="translate(0,0)"/>
<path d="" fill="#383635" transform="translate(0,0)"/>
<path d="" fill="#302D2D" transform="translate(0,0)"/>
<path d="" fill="#373534" transform="translate(0,0)"/>
<path d="" fill="#353231" transform="translate(0,0)"/>
<path d="" fill="#282A28" transform="translate(0,0)"/>
<path d="" fill="#353431" transform="translate(0,0)"/>
<path d="" fill="#2F2C2B" transform="translate(0,0)"/>
<path d="" fill="#373433" transform="translate(0,0)"/>
<path d="" fill="#363533" transform="translate(0,0)"/>
<path d="" fill="#343232" transform="translate(0,0)"/>
<path d="" fill="#282526" transform="translate(0,0)"/>
<path d="" fill="#2E2C2A" transform="translate(0,0)"/>
<path d="" fill="#353331" transform="translate(0,0)"/>
<path d="" fill="#272623" transform="translate(0,0)"/>
<path d="" fill="#2A2927" transform="translate(0,0)"/>
<path d="" fill="#373532" transform="translate(0,0)"/>
<path d="" fill="#363331" transform="translate(0,0)"/>
<path d="" fill="#323130" transform="translate(0,0)"/>
<path d="" fill="#2A2828" transform="translate(0,0)"/>
<path d="" fill="#333230" transform="translate(0,0)"/>
<path d="" fill="#33302E" transform="translate(0,0)"/>
<path d="" fill="#302E2D" transform="translate(0,0)"/>
<path d="" fill="#302F2D" transform="translate(0,0)"/>
<path d="" fill="#2D2C2A" transform="translate(0,0)"/>
<path d="" fill="#353131" transform="translate(0,0)"/>
<path d="" fill="#282524" transform="translate(0,0)"/>
<path d="" fill="#2D2B2B" transform="translate(0,0)"/>
<path d="" fill="#312F2D" transform="translate(0,0)"/>
<path d="" fill="#312E2D" transform="translate(0,0)"/>
<path d="" fill="#32302E" transform="translate(0,0)"/>
<path d="" fill="#363536" transform="translate(0,0)"/>
<path d="" fill="#312F2E" transform="translate(0,0)"/>
<path d="" fill="#2E2B2A" transform="translate(0,0)"/>
<path d="" fill="#312F2F" transform="translate(0,0)"/>
<path d="" fill="#33322F" transform="translate(0,0)"/>
<path d="" fill="#2F2B2C" transform="translate(0,0)"/>
<path d="" fill="#353233" transform="translate(0,0)"/>
<path d="" fill="#373637" transform="translate(0,0)"/>
<path d="" fill="#32302F" transform="translate(0,0)"/>
<path d="" fill="#2E2C2C" transform="translate(0,0)"/>
<path d="" fill="#2F2C2C" transform="translate(0,0)"/>
<path d="" fill="#302C2C" transform="translate(0,0)"/>
<path d="" fill="#302C2B" transform="translate(0,0)"/>
<path d="" fill="#312E2E" transform="translate(0,0)"/>
<path d="" fill="#2F2D2C" transform="translate(0,0)"/>
<path d="" fill="#2F2D2B" transform="translate(0,0)"/>
<path d="" fill="#333130" transform="translate(0,0)"/>
<path d="" fill="#312E2E" transform="translate(0,0)"/>
<path d="" fill="#353430" transform="translate(0,0)"/>
<path d="" fill="#363334" transform="translate(0,0)"/>
<path d="" fill="#343432" transform="translate(0,0)"/>
<path d="" fill="#313030" transform="translate(0,0)"/>
<path d="" fill="#343531" transform="translate(0,0)"/>
<path d="" fill="#363332" transform="translate(0,0)"/>
<path d="" fill="#353535" transform="translate(0,0)"/>
<path d="" fill="#343331" transform="translate(0,0)"/>
<path d="" fill="#393736" transform="translate(0,0)"/>
<path d="" fill="#373532" transform="translate(0,0)"/>
<path d="" fill="#343332" transform="translate(0,0)"/>
<path d="" fill="#333030" transform="translate(0,0)"/>
<path d="" fill="#393633" transform="translate(0,0)"/>
<path d="" fill="#3B3A37" transform="translate(0,0)"/>
<path d="" fill="#3B3938" transform="translate(0,0)"/>
<path d="" fill="#353332" transform="translate(0,0)"/>
<path d="" fill="#373534" transform="translate(0,0)"/>
<path d="" fill="#3A3838" transform="translate(0,0)"/>
<path d="" fill="#3A3937" transform="translate(0,0)"/>
<path d="" fill="#3A3937" transform="translate(0,0)"/>
<path d="" fill="#3B3B3C" transform="translate(0,0)"/>
<path d="" fill="#363132" transform="translate(0,0)"/>
<path d="" fill="#373737" transform="translate(0,0)"/>
<path d="" fill="#3B3A39" transform="translate(0,0)"/>
<path d="" fill="#353434" transform="translate(0,0)"/>
<path d="" fill="#343132" transform="translate(0,0)"/>
<path d="" fill="#353332" transform="translate(0,0)"/>
<path d="" fill="#393939" transform="translate(0,0)"/>
<path d="" fill="#343231" transform="translate(0,0)"/>
<path d="" fill="#353232" transform="translate(0,0)"/>
<path d="" fill="#383333" transform="translate(0,0)"/>
<path d="" fill="#333331" transform="translate(0,0)"/>
<path d="" fill="#353532" transform="translate(0,0)"/>
<path d="" fill="#333230" transform="translate(0,0)"/>
<path d="" fill="#333130" transform="translate(0,0)"/>
<path d="" fill="#383635" transform="translate(0,0)"/>
<path d="" fill="#313132" transform="translate(0,0)"/>
<path d="" fill="#323232" transform="translate(0,0)"/>
<path d="" fill="#333130" transform="translate(0,0)"/>
<path d="" fill="#333031" transform="translate(0,0)"/>
<path d="" fill="#34312F" transform="translate(0,0)"/>
<path d="" fill="#303030" transform="translate(0,0)"/>
<path d="" fill="#373838" transform="translate(0,0)"/>
<path d="" fill="#332F31" transform="translate(0,0)"/>
<path d="" fill="#33302D" transform="translate(0,0)"/>
<path d="" fill="#333230" transform="translate(0,0)"/>
<path d="" fill="#383936" transform="translate(0,0)"/>
<path d="" fill="#323131" transform="translate(0,0)"/>
<path d="" fill="#353230" transform="translate(0,0)"/>
<path d="" fill="#313033" transform="translate(0,0)"/>
<path d="" fill="#31302E" transform="translate(0,0)"/>
<path d="" fill="#322F2D" transform="translate(0,0)"/>
<path d="" fill="#3D3C3E" transform="translate(0,0)"/>
<path d="" fill="#353030" transform="translate(0,0)"/>
<path d="" fill="#2F2B2B" transform="translate(0,0)"/>
<path d="" fill="#363634" transform="translate(0,0)"/>
<path d="" fill="#363536" transform="translate(0,0)"/>
<path d="" fill="#322F2E" transform="translate(0,0)"/>
<path d="" fill="#3B393A" transform="translate(0,0)"/>
<path d="" fill="#302D2C" transform="translate(0,0)"/>
<path d="" fill="#32322F" transform="translate(0,0)"/>
<path d="" fill="#2D2C2B" transform="translate(0,0)"/>
<path d="" fill="#2E2C2C" transform="translate(0,0)"/>
<path d="" fill="#2C2C2C" transform="translate(0,0)"/>
<path d="" fill="#333431" transform="translate(0,0)"/>
<path d="" fill="#3C3C3B" transform="translate(0,0)"/>
<path d="" fill="#2D2B2A" transform="translate(0,0)"/>
<path d="" fill="#2F2D2B" transform="translate(0,0)"/>
<path d="" fill="#2E2C2C" transform="translate(0,0)"/>
<path d="" fill="#2D2B2B" transform="translate(0,0)"/>
<path d="" fill="#2F2D29" transform="translate(0,0)"/>
<path d="" fill="#2D2C2C" transform="translate(0,0)"/>
<path d="" fill="#2C2D29" transform="translate(0,0)"/>
<path d="" fill="#2D2C2A" transform="translate(0,0)"/>
<path d="" fill="#343332" transform="translate(0,0)"/>
<path d="" fill="#312E2B" transform="translate(0,0)"/>
<path d="" fill="#32302E" transform="translate(0,0)"/>
<path d="" fill="#302E2F" transform="translate(0,0)"/>
<path d="" fill="#2D2A29" transform="translate(0,0)"/>
<path d="" fill="#292727" transform="translate(0,0)"/>
<path d="" fill="#323130" transform="translate(0,0)"/>
<path d="" fill="#332F2F" transform="translate(0,0)"/>
<path d="" fill="#2C2927" transform="translate(0,0)"/>
<path d="" fill="#33322F" transform="translate(0,0)"/>
<path d="" fill="#312E2F" transform="translate(0,0)"/>
<path d="" fill="#2D2827" transform="translate(0,0)"/>
<path d="" fill="#33312F" transform="translate(0,0)"/>
<path d="" fill="#323132" transform="translate(0,0)"/>
<path d="" fill="#333331" transform="translate(0,0)"/>
<path d="" fill="#2B2727" transform="translate(0,0)"/>
<path d="" fill="#2B2927" transform="translate(0,0)"/>
<path d="" fill="#2C2A28" transform="translate(0,0)"/>
<path d="" fill="#312F2E" transform="translate(0,0)"/>
<path d="" fill="#353333" transform="translate(0,0)"/>
<path d="" fill="#363735" transform="translate(0,0)"/>
<path d="" fill="#393836" transform="translate(0,0)"/>
<path d="" fill="#2B2A29" transform="translate(0,0)"/>
<path d="" fill="#333131" transform="translate(0,0)"/>
<path d="" fill="#302E2D" transform="translate(0,0)"/>
<path d="" fill="#3C3B3A" transform="translate(0,0)"/>
<path d="" fill="#322E2F" transform="translate(0,0)"/>
<path d="" fill="#2B2827" transform="translate(0,0)"/>
<path d="" fill="#353333" transform="translate(0,0)"/>
<path d="" fill="#312E2D" transform="translate(0,0)"/>
<path d="" fill="#363634" transform="translate(0,0)"/>
<path d="" fill="#2F2B2B" transform="translate(0,0)"/>
<path d="" fill="#2D2928" transform="translate(0,0)"/>
<path d="" fill="#2F2C2B" transform="translate(0,0)"/>
<path d="" fill="#363232" transform="translate(0,0)"/>
<path d="" fill="#2A2828" transform="translate(0,0)"/>
<path d="" fill="#353232" transform="translate(0,0)"/>
<path d="" fill="#2A2826" transform="translate(0,0)"/>
<path d="" fill="#2F302E" transform="translate(0,0)"/>
<path d="" fill="#302C2C" transform="translate(0,0)"/>
<path d="" fill="#2B2826" transform="translate(0,0)"/>
<path d="" fill="#2D2E2B" transform="translate(0,0)"/>
<path d="" fill="#2C2A2B" transform="translate(0,0)"/>
<path d="" fill="#2B2A28" transform="translate(0,0)"/>
<path d="" fill="#393837" transform="translate(0,0)"/>
<path d="" fill="#343331" transform="translate(0,0)"/>
<path d="" fill="#302E2C" transform="translate(0,0)"/>
<path d="" fill="#363132" transform="translate(0,0)"/>
<path d="" fill="#3A3737" transform="translate(0,0)"/>
<path d="" fill="#353434" transform="translate(0,0)"/>
<path d="" fill="#353434" transform="translate(0,0)"/>
<path d="" fill="#2E2C2A" transform="translate(0,0)"/>
<path d="" fill="#2D2A29" transform="translate(0,0)"/>
<path d="" fill="#3B393B" transform="translate(0,0)"/>
<path d="" fill="#2D2A28" transform="translate(0,0)"/>
<path d="" fill="#302D2B" transform="translate(0,0)"/>
<path d="" fill="#373737" transform="translate(0,0)"/>
<path d="" fill="#302E2D" transform="translate(0,0)"/>
<path d="" fill="#3A3938" transform="translate(0,0)"/>
<path d="" fill="#302B2A" transform="translate(0,0)"/>
<path d="" fill="#302F2F" transform="translate(0,0)"/>
<path d="" fill="#3A3B3B" transform="translate(0,0)"/>
<path d="" fill="#383735" transform="translate(0,0)"/>
<path d="" fill="#32302E" transform="translate(0,0)"/>
<path d="" fill="#373737" transform="translate(0,0)"/>
<path d="" fill="#2F2B2B" transform="translate(0,0)"/>
<path d="" fill="#313130" transform="translate(0,0)"/>
<path d="" fill="#393738" transform="translate(0,0)"/>
<path d="" fill="#343534" transform="translate(0,0)"/>
<path d="" fill="#3C3B3C" transform="translate(0,0)"/>
<path d="" fill="#302C2A" transform="translate(0,0)"/>
<path d="" fill="#3D3A39" transform="translate(0,0)"/>
<path d="" fill="#2F2B2C" transform="translate(0,0)"/>
<path d="" fill="#343333" transform="translate(0,0)"/>
<path d="" fill="#32302D" transform="translate(0,0)"/>
<path d="" fill="#3B3839" transform="translate(0,0)"/>
<path d="" fill="#312D2D" transform="translate(0,0)"/>
<path d="" fill="#31312F" transform="translate(0,0)"/>
<path d="" fill="#2F2B2C" transform="translate(0,0)"/>
<path d="" fill="#322F2C" transform="translate(0,0)"/>
<path d="" fill="#3D3C3B" transform="translate(0,0)"/>
<path d="" fill="#383939" transform="translate(0,0)"/>
<path d="" fill="#2F2E2B" transform="translate(0,0)"/>
<path d="" fill="#373534" transform="translate(0,0)"/>
<path d="" fill="#353333" transform="translate(0,0)"/>
<path d="" fill="#31312F" transform="translate(0,0)"/>
<path d="" fill="#2D2B29" transform="translate(0,0)"/>
<path d="" fill="#35332F" transform="translate(0,0)"/>
<path d="" fill="#3C3A3B" transform="translate(0,0)"/>
<path d="" fill="#3F3B3B" transform="translate(0,0)"/>
<path d="" fill="#353131" transform="translate(0,0)"/>
<path d="" fill="#343030" transform="translate(0,0)"/>
<path d="" fill="#333130" transform="translate(0,0)"/>
<path d="" fill="#363430" transform="translate(0,0)"/>
<path d="" fill="#2E2C2D" transform="translate(0,0)"/>
<path d="" fill="#373333" transform="translate(0,0)"/>
<path d="" fill="#373534" transform="translate(0,0)"/>
<path d="" fill="#3B3937" transform="translate(0,0)"/>
<path d="" fill="#383535" transform="translate(0,0)"/>
<path d="" fill="#3D3D3E" transform="translate(0,0)"/>
<path d="" fill="#3C3B3D" transform="translate(0,0)"/>
<path d="" fill="#393636" transform="translate(0,0)"/>
<path d="" fill="#353433" transform="translate(0,0)"/>
<path d="" fill="#383435" transform="translate(0,0)"/>
<path d="" fill="#373737" transform="translate(0,0)"/>
<path d="" fill="#343435" transform="translate(0,0)"/>
<path d="" fill="#333231" transform="translate(0,0)"/>
<path d="" fill="#342F32" transform="translate(0,0)"/>
<path d="" fill="#343434" transform="translate(0,0)"/>
<path d="" fill="#343534" transform="translate(0,0)"/>
<path d="" fill="#343331" transform="translate(0,0)"/>
<path d="" fill="#333230" transform="translate(0,0)"/>
<path d="" fill="#353230" transform="translate(0,0)"/>
<path d="" fill="#33312F" transform="translate(0,0)"/>
<path d="" fill="#33312D" transform="translate(0,0)"/>
<path d="" fill="#353532" transform="translate(0,0)"/>
<path d="" fill="#373735" transform="translate(0,0)"/>
<path d="" fill="#3A3937" transform="translate(0,0)"/>
<path d="" fill="#343131" transform="translate(0,0)"/>
<path d="" fill="#373835" transform="translate(0,0)"/>
<path d="" fill="#3E3E3B" transform="translate(0,0)"/>
<path d="" fill="#373935" transform="translate(0,0)"/>
<path d="" fill="#333430" transform="translate(0,0)"/>
<path d="" fill="#373436" transform="translate(0,0)"/>
<path d="" fill="#3C3A3B" transform="translate(0,0)"/>
<path d="" fill="#393735" transform="translate(0,0)"/>
<path d="" fill="#383735" transform="translate(0,0)"/>
<path d="" fill="#3A3A3A" transform="translate(0,0)"/>
<path d="" fill="#353435" transform="translate(0,0)"/>
<path d="" fill="#383838" transform="translate(0,0)"/>
<path d="" fill="#3A3B39" transform="translate(0,0)"/>
<path d="" fill="#424140" transform="translate(0,0)"/>
<path d="" fill="#41423F" transform="translate(0,0)"/>
<path d="" fill="#41413F" transform="translate(0,0)"/>
<path d="" fill="#434340" transform="translate(0,0)"/>
<path d="" fill="#42413D" transform="translate(0,0)"/>
</svg>
