<?xml version="1.0" encoding="UTF-8"?>
<svg version="1.1" xmlns="http://www.w3.org/2000/svg" width="1024" height="1024">
<path d="M0 0 C4.91821436 3.71598418 8.96653689 7.31754612 12.8125 12.125 C13.87889156 13.04093532 14.96304282 13.93653061 16.0625 14.8125 C16.97 15.575625 17.8775 16.33875 18.8125 17.125 C18.8125 17.785 18.8125 18.445 18.8125 19.125 C19.4725 19.125 20.1325 19.125 20.8125 19.125 C22.52327767 20.74635601 24.18273251 22.42223358 25.8125 24.125 C27.505565 25.79653106 29.1996083 27.46707167 30.89453125 29.13671875 C32.31727487 30.545678 33.74000427 31.95465198 35.16186523 33.36450195 C36.14449785 34.33696884 37.12890133 35.30764932 38.11499023 36.27661133 C39.5461325 37.68362126 40.97045058 39.09756198 42.39453125 40.51171875 C43.66647339 41.76795044 43.66647339 41.76795044 44.96411133 43.04956055 C46.8125 45.125 46.8125 45.125 46.8125 47.125 C47.34875 47.33125 47.885 47.5375 48.4375 47.75 C51.73228009 49.65750426 54.40613628 52.17319384 56.8125 55.125 C56.8125 55.785 56.8125 56.445 56.8125 57.125 C57.35616211 57.34414062 57.89982422 57.56328125 58.45996094 57.7890625 C61.58917207 59.56604915 63.93935399 61.96604975 66.453125 64.5 C66.98017029 65.02513184 67.50721558 65.55026367 68.05023193 66.09130859 C69.15866928 67.19838883 70.26460046 68.3079833 71.36816406 69.41992188 C73.06356301 71.12606975 74.7694161 72.82124047 76.4765625 74.515625 C77.55272558 75.59310892 78.62826851 76.67121267 79.703125 77.75 C80.21554749 78.25837402 80.72796997 78.76674805 81.25592041 79.29052734 C84.8125 82.89505909 84.8125 82.89505909 84.8125 85.125 C85.36069932 85.34815982 85.90889864 85.57131964 86.47371006 85.80124187 C89.52178949 87.52645877 91.79193919 89.83517934 94.23313904 92.30513 C95.03539188 93.10481957 95.03539188 93.10481957 95.85385185 93.92066449 C97.6449041 95.70842244 99.42871415 97.50323511 101.21264648 99.2980957 C102.49531828 100.58133166 103.77843067 101.86412735 105.06195068 103.14651489 C108.54783619 106.63182578 112.02751274 110.12327701 115.50612903 113.61584115 C119.14773034 117.26994431 122.79499535 120.91838535 126.44166565 124.56742859 C133.35278617 131.48477033 140.25879395 138.40719325 147.16298681 145.33144873 C155.00237888 153.19313264 162.84739185 161.04919707 170.69291198 168.90476477 C184.10679879 182.33602693 197.51646068 195.77149509 210.92140198 209.21168518 C211.48835362 209.78011601 212.05530526 210.34854684 212.63943726 210.93420285 C213.67868085 211.97618045 214.7178928 213.01818962 215.75706381 214.06023961 C220.31062838 218.62591328 224.87069252 223.18500192 229.4379425 227.73698425 C230.33671616 228.63286758 231.23548981 229.52875092 232.16149902 230.45178223 C232.63961029 230.92834259 233.11772156 231.40490295 233.61032104 231.89590454 C244.64021979 242.89035397 255.66431073 253.89061213 266.68520832 264.89408398 C273.05379783 271.2523323 279.4242716 277.60867188 285.79907227 283.96069336 C291.36923139 289.51095914 296.93590163 295.06469604 302.49835843 300.62268144 C305.44119498 303.56290634 308.38577878 306.50133296 311.33455849 309.43559837 C314.10248661 312.19000789 316.86574707 314.94901275 319.62541389 317.71169853 C320.64118743 318.72691959 321.65868989 319.74041402 322.67799759 320.75208664 C324.06390457 322.1281148 325.44314349 323.51084942 326.82197571 324.89396667 C327.59716207 325.66730945 328.37234842 326.44065222 329.17102528 327.23742962 C330.8125 329.125 330.8125 329.125 330.8125 331.125 C331.4725 331.125 332.1325 331.125 332.8125 331.125 C334.58134337 332.73776896 336.18492923 334.37505549 337.8125 336.125 C338.46089844 336.79144531 339.10929688 337.45789063 339.77734375 338.14453125 C345.90785946 344.66319879 350.34173175 351.47039895 350.96484375 360.609375 C350.26396683 372.18282985 344.96204953 379.5303822 336.69140625 387.0546875 C335.39849688 388.19362089 334.09296035 389.31855305 332.76953125 390.421875 C330.32941 392.54541365 328.09304361 394.82992249 325.8125 397.125 C324.75611215 398.18600282 323.69965573 399.24693738 322.6431427 400.30781555 C321.44020702 401.51678594 320.23730257 402.72578741 319.03442383 403.93481445 C312.32966178 410.67217474 305.6198705 417.40450311 298.9071703 424.13395405 C294.84928746 428.20232119 290.7933139 432.27255637 286.74145508 436.34692383 C282.81729508 440.29273767 278.88833722 444.23371372 274.95593834 448.17131615 C273.45700917 449.67394981 271.9598457 451.17834689 270.46445656 452.68450356 C268.3816882 454.78169059 266.2928463 456.87263587 264.20239258 458.9621582 C263.58158813 459.5901532 262.96078369 460.21814819 262.32116699 460.86517334 C258.0406094 465.125 258.0406094 465.125 255.8125 465.125 C255.4825 466.115 255.1525 467.105 254.8125 468.125 C254.1525 468.125 253.4925 468.125 252.8125 468.125 C252.5515152 468.72381989 252.2905304 469.32263977 252.02163696 469.93960571 C250.72560646 472.28205139 249.53689516 473.41897122 247.46630859 475.09130859 C242.01886364 479.70755662 237.08242635 484.80717802 232.08653641 489.89805984 C229.70228431 492.32495256 227.30819791 494.7420488 224.91475487 497.15987206 C220.47693701 501.64312363 216.04314893 506.13018606 211.62597656 510.63378906 C208.53490085 513.7845843 205.43146795 516.92274346 202.31977463 520.05317307 C201.1455581 521.23904615 199.9758629 522.42941566 198.81105423 523.62453079 C190.42635785 532.22192082 182.34573624 539.82596499 169.69921875 540.22265625 C168.64347656 540.21105469 167.58773437 540.19945312 166.5 540.1875 C165.43136719 540.17847656 164.36273437 540.16945313 163.26171875 540.16015625 C162.04935547 540.14275391 162.04935547 540.14275391 160.8125 540.125 C160.8125 539.465 160.8125 538.805 160.8125 538.125 C160.07386719 538.02058594 159.33523438 537.91617188 158.57421875 537.80859375 C150.09824905 535.71058145 142.36509393 526.46585362 136.8125 520.125 C136.8125 519.465 136.8125 518.805 136.8125 518.125 C135.93878754 517.73828125 135.93878754 517.73828125 135.04742432 517.34375 C132.62186549 516.0210431 131.00735559 514.57371546 129.05371094 512.625 C128.33326599 511.91085937 127.61282104 511.19671875 126.87054443 510.4609375 C126.10373352 509.69007813 125.33692261 508.91921875 124.546875 508.125 C123.75347717 507.33351563 122.96007935 506.54203125 122.14263916 505.7265625 C120.46925946 504.05454263 118.79839819 502.37999903 117.12988281 500.703125 C114.56536403 498.12787602 111.99033011 495.56348948 109.4140625 493 C107.79102473 491.37564116 106.16860719 489.75066231 104.546875 488.125 C103.77196716 487.35414063 102.99705933 486.58328125 102.19866943 485.7890625 C101.13691498 484.71785156 101.13691498 484.71785156 100.05371094 483.625 C99.42623962 482.9959375 98.79876831 482.366875 98.15228271 481.71875 C96.8125 480.125 96.8125 480.125 96.8125 478.125 C95.94625 477.7846875 95.94625 477.7846875 95.0625 477.4375 C92.21719122 475.77773655 90.87596666 473.70433333 88.8125 471.125 C86.87979058 469.35299727 84.89129627 467.65705629 82.8984375 465.953125 C79.71385203 463.16213998 76.77494135 460.14735589 73.8125 457.125 C71.27122449 454.5711853 68.71798819 452.03297171 66.13671875 449.51953125 C65.26660156 448.66746094 64.39648438 447.81539062 63.5 446.9375 C62.61699219 446.07769531 61.73398437 445.21789062 60.82421875 444.33203125 C58.8125 442.125 58.8125 442.125 58.8125 440.125 C57.94625 439.75375 57.94625 439.75375 57.0625 439.375 C54.48310021 437.94200012 52.75128408 436.34075324 50.8125 434.125 C50.8125 433.465 50.8125 432.805 50.8125 432.125 C49.9771875 431.7846875 49.9771875 431.7846875 49.125 431.4375 C46.15090412 429.74949964 44.09241135 427.65823483 41.8125 425.125 C41.8125 424.465 41.8125 423.805 41.8125 423.125 C41.19375 422.8775 40.575 422.63 39.9375 422.375 C37.46181313 420.91871361 36.86124998 419.74687494 35.8125 417.125 C35.1525 417.125 34.4925 417.125 33.8125 417.125 C31.06419594 414.59953141 28.67321054 411.95437042 26.3125 409.0625 C23.97855816 406.32011833 21.61664483 404.35393564 18.8125 402.125 C17.45863064 400.47497172 16.12571858 398.8075613 14.8125 397.125 C12.30063108 394.48092746 9.78066151 392.09939078 6.9375 389.8125 C4.48752073 387.81876687 2.47964375 385.65880138 0.4375 383.25 C-6.39390868 374.79833369 -6.39390868 374.79833369 -16.1875 371.25 C-20.01152343 371.63438209 -22.01872171 372.41539951 -24.83325195 375.01904297 C-25.52270905 375.65436951 -26.21216614 376.28969604 -26.92251587 376.9442749 C-31.28478492 381.14426442 -35.58553576 385.40170095 -39.85546875 389.6953125 C-40.86316699 390.70488176 -41.87109064 391.71422607 -42.87922668 392.72335815 C-45.51145816 395.35937409 -48.14067454 397.99837673 -50.76922607 400.63806152 C-53.44003139 403.31912004 -56.11368464 405.99733514 -58.78710938 408.67578125 C-63.4915758 413.38976765 -68.19356709 418.10620817 -72.89372253 422.82449341 C-74.44626868 424.38159417 -76.00017757 425.93733716 -77.55532837 427.49183655 C-80.69695992 430.63465189 -83.83137434 433.78459271 -86.96557617 436.93481445 C-93.67033822 443.67217474 -100.3801295 450.40450311 -107.0928297 457.13395405 C-111.15071254 461.20232119 -115.2066861 465.27255637 -119.25854492 469.34692383 C-123.18270492 473.29273767 -127.11166278 477.23371372 -131.04406166 481.17131615 C-132.54299083 482.67394981 -134.0401543 484.17834689 -135.53554344 485.68450356 C-137.6183118 487.78169059 -139.7071537 489.87263587 -141.79760742 491.9621582 C-142.41841187 492.5901532 -143.03921631 493.21814819 -143.67883301 493.86517334 C-147.9593906 498.125 -147.9593906 498.125 -150.1875 498.125 C-150.51234375 498.93710937 -150.51234375 498.93710937 -150.84375 499.765625 C-152.65249997 502.94145344 -155.10473799 505.33228081 -157.6875 507.875 C-158.18636719 508.38160156 -158.68523437 508.88820313 -159.19921875 509.41015625 C-162.93408861 513.125 -162.93408861 513.125 -165.1875 513.125 C-165.5896875 514.0840625 -165.5896875 514.0840625 -166 515.0625 C-167.1875 517.125 -167.1875 517.125 -170.1875 518.125 C-170.5175 519.115 -170.8475 520.105 -171.1875 521.125 C-172.8271721 522.49139342 -174.49860128 523.8199419 -176.1875 525.125 C-176.97125 525.90875 -177.755 526.6925 -178.5625 527.5 C-179.42875 528.36625 -180.295 529.2325 -181.1875 530.125 C-181.67734375 530.62386719 -182.1671875 531.12273438 -182.671875 531.63671875 C-188.35221896 537.00599625 -195.0235093 539.61363272 -202.75 540.5625 C-218.53467114 538.55354185 -227.21079171 528.3780952 -237.875 517.5625 C-239.09653378 516.33091245 -240.31853565 515.09978898 -241.54101562 513.86914062 C-243.78635315 511.60758907 -246.02894783 509.34339511 -248.26831055 507.07592773 C-253.71731192 501.47995008 -253.71731192 501.47995008 -259.5625 496.3125 C-262.93208811 493.47765087 -265.7051339 490.30984162 -268.54296875 486.953125 C-270.54769953 484.72458817 -272.83812475 482.97602293 -275.1875 481.125 C-275.1875 480.465 -275.1875 479.805 -275.1875 479.125 C-275.8475 479.125 -276.5075 479.125 -277.1875 479.125 C-277.1875 478.465 -277.1875 477.805 -277.1875 477.125 C-278.1775 476.795 -279.1675 476.465 -280.1875 476.125 C-281.87838222 474.14543058 -283.54580472 472.14554804 -285.1875 470.125 C-285.8475 469.795 -286.5075 469.465 -287.1875 469.125 C-287.1875 468.465 -287.1875 467.805 -287.1875 467.125 C-287.8475 467.125 -288.5075 467.125 -289.1875 467.125 C-289.1875 466.465 -289.1875 465.805 -289.1875 465.125 C-289.8475 465.125 -290.5075 465.125 -291.1875 465.125 C-291.1875 464.465 -291.1875 463.805 -291.1875 463.125 C-291.8475 463.125 -292.5075 463.125 -293.1875 463.125 C-293.1875 462.465 -293.1875 461.805 -293.1875 461.125 C-294.1775 460.795 -295.1675 460.465 -296.1875 460.125 C-297.40213873 458.68056475 -298.61274603 457.23200503 -299.78125 455.75 C-301.23511272 454.06998085 -302.7609488 452.75311605 -304.5 451.375 C-305.8303125 450.26125 -305.8303125 450.26125 -307.1875 449.125 C-307.1875 448.465 -307.1875 447.805 -307.1875 447.125 C-307.8475 447.125 -308.5075 447.125 -309.1875 447.125 C-309.1875 446.465 -309.1875 445.805 -309.1875 445.125 C-309.72238541 444.91444977 -310.25727081 444.70389954 -310.80836487 444.48696899 C-314.1072465 442.59847833 -316.59237171 440.00661253 -319.25366211 437.33349609 C-319.85093613 436.74133301 -320.44821014 436.14916992 -321.06358337 435.5390625 C-323.03587037 433.58066975 -325.00064468 431.61493981 -326.96484375 429.6484375 C-328.3369843 428.28018534 -329.70934784 426.91215677 -331.08192444 425.54434204 C-333.95932558 422.67440379 -336.83281882 419.80061906 -339.70385742 416.92431641 C-343.37157459 413.25081948 -347.05049488 409.58877919 -350.73270321 405.92981529 C-353.57164823 403.10565545 -356.40357907 400.27454169 -359.23358345 397.44142532 C-360.58633302 396.08918705 -361.94142947 394.73929211 -363.29896355 393.39185715 C-365.20392268 391.49933083 -367.09897226 389.59737859 -368.99194336 387.69287109 C-369.54742859 387.1450296 -370.10291382 386.59718811 -370.67523193 386.03274536 C-377.4483939 379.16870393 -382.02109893 371.70754198 -382.5625 361.875 C-382.06434878 345.57438499 -369.08185583 334.72284268 -358.28515625 324.0625 C-357.15503817 322.9386687 -356.02544459 321.81430974 -354.89634705 320.68945312 C-351.95344794 317.75972464 -349.00499391 314.83565932 -346.05480957 311.91326904 C-341.30819664 307.21015737 -336.56865974 302.49993709 -331.83215141 297.78665161 C-330.18092414 296.14563941 -328.52632975 294.50807939 -326.87135315 292.87084961 C-325.86602693 291.87234663 -324.86080755 290.87373607 -323.85571289 289.875 C-322.97605362 289.00359375 -322.09639435 288.1321875 -321.19007874 287.234375 C-319.14769972 285.28830789 -319.14769972 285.28830789 -318.1875 283.125 C-317.5275 283.125 -316.8675 283.125 -316.1875 283.125 C-315.8575 282.135 -315.5275 281.145 -315.1875 280.125 C-313.5859375 278.58203125 -313.5859375 278.58203125 -311.5625 276.9375 C-307.93915234 273.87706528 -304.9145962 270.60018725 -301.859375 266.984375 C-299.52345145 264.38647872 -296.89941294 262.32035809 -294.1875 260.125 C-293.8575 259.465 -293.5275 258.805 -293.1875 258.125 C-292.5275 258.125 -291.8675 258.125 -291.1875 258.125 C-290.8575 257.135 -290.5275 256.145 -290.1875 255.125 C-289.5275 255.125 -288.8675 255.125 -288.1875 255.125 C-287.960625 254.5475 -287.73375 253.97 -287.5 253.375 C-285.84023655 250.52969122 -283.76683333 249.18846666 -281.1875 247.125 C-280.14538604 245.96981414 -279.12608765 244.79387325 -278.12288475 243.60473919 C-273.77340519 238.57751307 -269.10820225 233.89756388 -264.40884399 229.19917297 C-263.43143516 228.21845757 -262.45423699 227.23753218 -261.47722948 226.25641698 C-258.81048356 223.57973471 -256.14066845 220.90613286 -253.47028351 218.2330817 C-250.58366781 215.34253838 -247.69988056 212.44917531 -244.81565857 209.5562439 C-237.86302036 202.58391996 -230.90560424 195.6163733 -223.94757372 188.64943126 C-220.66697026 185.36443573 -217.38685319 182.0789546 -214.10667038 178.79353905 C-203.19848872 167.86836015 -192.28905684 156.94443195 -181.37600136 146.02412128 C-178.54948621 143.19569645 -175.72297642 140.36726628 -172.89648438 137.53881836 C-171.84279978 136.48440815 -171.84279978 136.48440815 -170.76782863 135.40869673 C-159.37669019 124.00924936 -147.99410256 112.6013035 -136.61504491 101.18979821 C-124.92099111 89.46267147 -113.21941867 77.74309 -101.51041448 66.03089017 C-94.94078062 59.45909246 -88.37446888 52.88404918 -81.81654739 46.3005619 C-76.23526115 40.69756631 -70.64719106 35.10144974 -65.0501795 29.51416079 C-62.19638891 26.66491287 -59.34590937 23.81255032 -56.50411415 20.951334 C-53.89970783 18.32928317 -51.28613844 15.71673495 -48.66514771 13.11126485 C-47.27661839 11.72622905 -45.8979005 10.33137821 -44.51962531 8.93613797 C-31.765012 -3.68805322 -16.42801516 -9.66353833 0 0 Z " fill="#000000" transform="translate(528.1875,151.875)"/>
<path d="M0 0 C0.95519531 0.12503906 1.91039062 0.25007812 2.89453125 0.37890625 C11.41696258 3.11862024 17.7814948 9.59165365 23.94140625 15.828125 C24.72772934 16.61394958 25.51405243 17.39977417 26.32420349 18.20941162 C27.96885333 19.8563855 29.60985208 21.5070128 31.24731445 23.16113281 C33.76538756 25.70303316 36.29676859 28.23110585 38.83007812 30.7578125 C40.43048492 32.36378907 42.03012277 33.97053237 43.62890625 35.578125 C44.38812881 36.33643616 45.14735138 37.09474731 45.92958069 37.8760376 C46.62127853 38.57726746 47.31297638 39.27849731 48.02563477 40.00097656 C48.63802505 40.61797424 49.25041534 41.23497192 49.88136292 41.8706665 C51.1875 43.4375 51.1875 43.4375 51.1875 45.4375 C52.5075 46.0975 53.8275 46.7575 55.1875 47.4375 C55.1875 48.0975 55.1875 48.7575 55.1875 49.4375 C55.77015625 49.6953125 56.3528125 49.953125 56.953125 50.21875 C59.3677903 51.53584017 61.00490177 52.98838384 62.9375 54.9375 C63.55109375 55.5459375 64.1646875 56.154375 64.796875 56.78125 C66.1875 58.4375 66.1875 58.4375 66.1875 60.4375 C67.08287476 60.83714966 67.08287476 60.83714966 67.99633789 61.24487305 C70.23753162 62.4647317 71.54509742 63.63742966 73.24609375 65.51953125 C73.79716797 66.12216797 74.34824219 66.72480469 74.91601562 67.34570312 C75.47998047 67.97412109 76.04394531 68.60253906 76.625 69.25 C81.02611108 74.09679322 85.46860599 78.83088875 90.19750977 83.36450195 C92.55814723 85.62887992 94.90409842 87.90786683 97.25 90.1875 C98.05244141 90.94804688 98.85488281 91.70859375 99.68164062 92.4921875 C106.67182341 99.33734575 110.6811765 106.07458186 111.27734375 115.96484375 C110.74570042 130.5965929 96.83787159 141.08653347 87.23046875 150.66015625 C85.87733765 152.01463658 84.52450338 153.36941352 83.17195129 154.72447205 C80.35362701 157.5457284 77.53175803 160.36337626 74.70727539 163.1784668 C71.08100378 166.79326805 67.46388839 170.41707848 63.84931469 174.04357243 C61.06577837 176.83431396 58.27752357 179.62030172 55.48778725 182.40484428 C54.15101496 183.74028032 52.8157325 185.07720937 51.48195457 186.41563606 C49.62711068 188.27553142 47.76602636 190.12894214 45.90307617 191.98071289 C45.35086899 192.53696854 44.7986618 193.09322418 44.22972107 193.66633606 C40.4160429 197.4375 40.4160429 197.4375 38.1875 197.4375 C37.98125 197.994375 37.775 198.55125 37.5625 199.125 C36.0445529 201.67791103 34.22716431 203.11756041 31.91015625 204.93359375 C29.19518025 207.30381089 26.98514537 210.08271139 24.703125 212.86328125 C24.20296875 213.38277344 23.7028125 213.90226563 23.1875 214.4375 C22.5275 214.4375 21.8675 214.4375 21.1875 214.4375 C20.91679688 215.02789063 20.64609375 215.61828125 20.3671875 216.2265625 C16.19602821 224.04403322 8.31157926 228.5600101 0.1875 231.4375 C-7.26239717 232.75100811 -13.39861052 231.29956673 -19.8125 227.4375 C-26.94930009 221.92108018 -33.15963514 215.20641695 -39.5 208.8125 C-40.52905953 207.77840959 -41.55835507 206.74455398 -42.58789062 205.7109375 C-44.48022395 203.81052143 -46.3709121 201.908524 -48.26049805 200.00537109 C-50.00498669 198.25003468 -51.75818984 196.50332736 -53.51879883 194.76416016 C-55.8125 192.4375 -55.8125 192.4375 -57.75 189.9375 C-60.16164516 187.01429375 -62.8797892 184.83154964 -65.8125 182.4375 C-68.67332718 179.71971418 -71.28551929 176.89835192 -73.8125 173.875 C-76.2423792 170.99146049 -78.85753466 168.78631861 -81.8125 166.4375 C-83.49982277 164.45489574 -85.16616057 162.4542658 -86.8125 160.4375 C-89.17174033 157.96029765 -91.46790279 155.70048208 -94.1875 153.625 C-97.05796066 151.23294945 -99.3027096 148.62279704 -101.71484375 145.78125 C-103.7342347 143.52494726 -105.85326644 141.40972336 -108.02734375 139.30322266 C-115.29848647 132.25146786 -119.78861578 126.339617 -120.25 115.9375 C-120.03188464 104.09190354 -112.94374047 95.67325886 -104.84472656 87.70922852 C-103.96258484 86.81817917 -103.08044312 85.92712982 -102.17156982 85.00907898 C-99.77725168 82.59725577 -97.37047851 80.19946683 -94.95597553 77.80795407 C-92.41551885 75.28660378 -89.89032816 72.75003515 -87.36273193 70.21580505 C-83.11986532 65.96662527 -78.86494971 61.72981298 -74.60253906 57.50024414 C-69.69284479 52.62807018 -64.80312608 47.73652255 -59.92354226 42.83420616 C-55.20335416 38.09298814 -50.46906181 33.36609433 -45.72838593 28.64536858 C-43.72239898 26.6473144 -41.72140961 24.64445142 -39.7244339 22.63739204 C-36.92996774 19.8303066 -34.11501503 17.04432388 -31.29785156 14.26000977 C-30.48296265 13.43657074 -29.66807373 12.61313171 -28.82849121 11.76473999 C-20.65205192 3.75141733 -11.7741717 -1.74957571 0 0 Z " fill="#000000" transform="translate(516.8125,603.5625)"/>
<path d="M0 0 C0.99 0.33 1.98 0.66 3 1 C2.01 1 1.02 1 0 1 C0 0.67 0 0.34 0 0 Z " fill="#333232" transform="translate(312,690)"/>
<path d="M0 0 C0.33 0.66 0.66 1.32 1 2 C0.34 1.67 -0.32 1.34 -1 1 C-0.67 0.67 -0.34 0.34 0 0 Z " fill="#1E1C1C" transform="translate(481,616)"/>
<path d="M0 0 C2 1 2 1 2 1 Z " fill="#323132" transform="translate(508,836)"/>
<path d="" fill="#2C2B2B" transform="translate(0,0)"/>
<path d="" fill="#32312F" transform="translate(0,0)"/>
<path d="" fill="#252523" transform="translate(0,0)"/>
<path d="M0 0 C2 1 2 1 2 1 Z " fill="#282525" transform="translate(650,659)"/>
<path d="" fill="#282626" transform="translate(0,0)"/>
<path d="" fill="#22221F" transform="translate(0,0)"/>
<path d="" fill="#424242" transform="translate(0,0)"/>
<path d="" fill="#414040" transform="translate(0,0)"/>
<path d="" fill="#4D4D4C" transform="translate(0,0)"/>
<path d="" fill="#4A4A49" transform="translate(0,0)"/>
<path d="" fill="#302F2F" transform="translate(0,0)"/>
<path d="" fill="#312F2F" transform="translate(0,0)"/>
<path d="" fill="#302F30" transform="translate(0,0)"/>
<path d="" fill="#2E2E2D" transform="translate(0,0)"/>
<path d="" fill="#302E2C" transform="translate(0,0)"/>
<path d="" fill="#393938" transform="translate(0,0)"/>
<path d="" fill="#2E2C2D" transform="translate(0,0)"/>
<path d="" fill="#2E2B29" transform="translate(0,0)"/>
<path d="" fill="#2C2A29" transform="translate(0,0)"/>
<path d="" fill="#2E2B2B" transform="translate(0,0)"/>
<path d="" fill="#2C2A29" transform="translate(0,0)"/>
<path d="" fill="#302D2D" transform="translate(0,0)"/>
<path d="" fill="#302C2C" transform="translate(0,0)"/>
<path d="" fill="#2F2E30" transform="translate(0,0)"/>
<path d="" fill="#2E2E2D" transform="translate(0,0)"/>
<path d="" fill="#2D2C2C" transform="translate(0,0)"/>
<path d="" fill="#2C2C2A" transform="translate(0,0)"/>
<path d="" fill="#292826" transform="translate(0,0)"/>
<path d="" fill="#292825" transform="translate(0,0)"/>
<path d="" fill="#2B2829" transform="translate(0,0)"/>
<path d="" fill="#2A2727" transform="translate(0,0)"/>
<path d="" fill="#353334" transform="translate(0,0)"/>
<path d="" fill="#363534" transform="translate(0,0)"/>
<path d="" fill="#333433" transform="translate(0,0)"/>
<path d="" fill="#282725" transform="translate(0,0)"/>
<path d="" fill="#292626" transform="translate(0,0)"/>
<path d="" fill="#302D2D" transform="translate(0,0)"/>
<path d="" fill="#323232" transform="translate(0,0)"/>
<path d="" fill="#2A292A" transform="translate(0,0)"/>
<path d="" fill="#222222" transform="translate(0,0)"/>
<path d="" fill="#222320" transform="translate(0,0)"/>
<path d="" fill="#2B2A2A" transform="translate(0,0)"/>
<path d="" fill="#292728" transform="translate(0,0)"/>
<path d="" fill="#2E2D2C" transform="translate(0,0)"/>
<path d="" fill="#282727" transform="translate(0,0)"/>
<path d="" fill="#242021" transform="translate(0,0)"/>
<path d="" fill="#272624" transform="translate(0,0)"/>
<path d="" fill="#241F1E" transform="translate(0,0)"/>
<path d="" fill="#272626" transform="translate(0,0)"/>
<path d="" fill="#23211E" transform="translate(0,0)"/>
<path d="" fill="#252524" transform="translate(0,0)"/>
<path d="" fill="#2A2929" transform="translate(0,0)"/>
<path d="" fill="#282625" transform="translate(0,0)"/>
<path d="" fill="#201E20" transform="translate(0,0)"/>
<path d="" fill="#1F201C" transform="translate(0,0)"/>
<path d="" fill="#272525" transform="translate(0,0)"/>
<path d="" fill="#211E1E" transform="translate(0,0)"/>
<path d="" fill="#201E1E" transform="translate(0,0)"/>
<path d="" fill="#1F1D1D" transform="translate(0,0)"/>
<path d="" fill="#211C1C" transform="translate(0,0)"/>
<path d="" fill="#1F1C1C" transform="translate(0,0)"/>
<path d="" fill="#1D1D1D" transform="translate(0,0)"/>
<path d="" fill="#1F1D1B" transform="translate(0,0)"/>
<path d="" fill="#201E1D" transform="translate(0,0)"/>
<path d="" fill="#242222" transform="translate(0,0)"/>
<path d="" fill="#201C1B" transform="translate(0,0)"/>
<path d="" fill="#1F201C" transform="translate(0,0)"/>
<path d="" fill="#1F1E1C" transform="translate(0,0)"/>
<path d="" fill="#545354" transform="translate(0,0)"/>
<path d="" fill="#211F1F" transform="translate(0,0)"/>
<path d="" fill="#232020" transform="translate(0,0)"/>
<path d="" fill="#1F1E1F" transform="translate(0,0)"/>
<path d="" fill="#21201F" transform="translate(0,0)"/>
<path d="" fill="#221F21" transform="translate(0,0)"/>
<path d="" fill="#232120" transform="translate(0,0)"/>
<path d="" fill="#211F1F" transform="translate(0,0)"/>
<path d="" fill="#241F21" transform="translate(0,0)"/>
<path d="" fill="#23211F" transform="translate(0,0)"/>
<path d="" fill="#22201D" transform="translate(0,0)"/>
<path d="" fill="#232222" transform="translate(0,0)"/>
<path d="" fill="#222321" transform="translate(0,0)"/>
<path d="" fill="#242326" transform="translate(0,0)"/>
<path d="" fill="#232422" transform="translate(0,0)"/>
<path d="" fill="#2E2C2B" transform="translate(0,0)"/>
<path d="" fill="#242121" transform="translate(0,0)"/>
<path d="" fill="#211F1D" transform="translate(0,0)"/>
<path d="" fill="#2E2D2D" transform="translate(0,0)"/>
<path d="" fill="#22211F" transform="translate(0,0)"/>
<path d="" fill="#20221E" transform="translate(0,0)"/>
<path d="" fill="#232221" transform="translate(0,0)"/>
<path d="" fill="#232220" transform="translate(0,0)"/>
<path d="" fill="#201F1E" transform="translate(0,0)"/>
<path d="" fill="#323232" transform="translate(0,0)"/>
<path d="" fill="#23201F" transform="translate(0,0)"/>
<path d="" fill="#333232" transform="translate(0,0)"/>
<path d="" fill="#373635" transform="translate(0,0)"/>
<path d="" fill="#373938" transform="translate(0,0)"/>
<path d="" fill="#3A3838" transform="translate(0,0)"/>
<path d="" fill="#302F2D" transform="translate(0,0)"/>
<path d="" fill="#2F312F" transform="translate(0,0)"/>
<path d="" fill="#323131" transform="translate(0,0)"/>
<path d="" fill="#2E2B28" transform="translate(0,0)"/>
<path d="" fill="#575656" transform="translate(0,0)"/>
<path d="" fill="#282828" transform="translate(0,0)"/>
<path d="" fill="#2C292A" transform="translate(0,0)"/>
<path d="" fill="#2B2A29" transform="translate(0,0)"/>
<path d="" fill="#2A2928" transform="translate(0,0)"/>
<path d="" fill="#292828" transform="translate(0,0)"/>
<path d="" fill="#3E3E3F" transform="translate(0,0)"/>
<path d="" fill="#2D2C2C" transform="translate(0,0)"/>
<path d="" fill="#535454" transform="translate(0,0)"/>
<path d="" fill="#565657" transform="translate(0,0)"/>
<path d="" fill="#2B292B" transform="translate(0,0)"/>
<path d="" fill="#2C2A2A" transform="translate(0,0)"/>
<path d="" fill="#373636" transform="translate(0,0)"/>
<path d="" fill="#2B2B29" transform="translate(0,0)"/>
<path d="" fill="#2B2928" transform="translate(0,0)"/>
<path d="" fill="#2B2B28" transform="translate(0,0)"/>
<path d="" fill="#292828" transform="translate(0,0)"/>
<path d="" fill="#2B2B2C" transform="translate(0,0)"/>
<path d="" fill="#292827" transform="translate(0,0)"/>
<path d="" fill="#2D2B29" transform="translate(0,0)"/>
<path d="" fill="#2A2A28" transform="translate(0,0)"/>
<path d="" fill="#2B2A2A" transform="translate(0,0)"/>
<path d="" fill="#292927" transform="translate(0,0)"/>
<path d="" fill="#292524" transform="translate(0,0)"/>
<path d="" fill="#2A2829" transform="translate(0,0)"/>
<path d="" fill="#2C2B2B" transform="translate(0,0)"/>
<path d="" fill="#2D2C2D" transform="translate(0,0)"/>
<path d="" fill="#2C2A2A" transform="translate(0,0)"/>
<path d="" fill="#2F2D2D" transform="translate(0,0)"/>
<path d="" fill="#343132" transform="translate(0,0)"/>
<path d="" fill="#5A5A5B" transform="translate(0,0)"/>
<path d="" fill="#4D4E4D" transform="translate(0,0)"/>
</svg>
