<?xml version="1.0" encoding="UTF-8"?>
<svg version="1.1"
     xmlns="http://www.w3.org/2000/svg"
     width="1024"
     height="1205"
     viewBox="0 -42 1024 1205">
<path d="M0 0 C3.54649369 2.80064335 6.7974302 5.81522226 10 9 C10.886875 9.86625 11.77375 10.7325 12.6875 11.625 C13.8321875 12.800625 13.8321875 12.800625 15 14 C16.22611001 15.25299838 17.45546999 16.50282208 18.6875 17.75 C19.26886719 18.34296875 19.85023438 18.9359375 20.44921875 19.546875 C21.95513974 21.09641804 21.95513974 21.09641804 24 22 C24 22.66 24 23.32 24 24 C24.66 24 25.32 24 26 24 C26.8353125 25.051875 26.8353125 25.051875 27.6875 26.125 C30.0866637 29.10774407 32.6302638 31.29594533 35.609375 33.66796875 C36.06828125 34.10753906 36.5271875 34.54710937 37 35 C37 35.66 37 36.32 37 37 C37.89912109 37.39058594 37.89912109 37.39058594 38.81640625 37.7890625 C41.14938374 39.08284251 42.29777781 40.29468764 43.9375 42.375 C46.38667058 45.35338835 48.93476714 47.64212857 52 50 C56.83516484 54.50549451 56.83516484 54.50549451 58 58 C60.00016466 59.20882096 60.00016466 59.20882096 62 60 C62 60.66 62 61.32 62 62 C62.88807138 62.40051213 62.88807138 62.40051213 63.7940836 62.80911541 C66.03963554 64.02139762 67.49991 65.25330626 69.29466248 67.05415344 C69.92399689 67.68073853 70.5533313 68.30732361 71.20173645 68.95289612 C71.88080551 69.63915573 72.55987457 70.32541534 73.25952148 71.0324707 C74.34562714 72.11813828 74.34562714 72.11813828 75.45367432 73.22573853 C77.84758485 75.6210429 80.23432915 78.02335807 82.62109375 80.42578125 C84.28448009 82.09289942 85.94830981 83.75957531 87.61256409 85.42582703 C91.99626213 89.81716382 96.37392608 94.21446857 100.75036621 98.61303711 C105.19522254 103.07828732 109.64568016 107.53794671 114.09570312 111.99804688 C121.28850351 119.20843404 128.47782722 126.42226607 135.66273499 133.64051819 C141.92521796 139.97779679 141.92521796 139.97779679 148.3125 146.1875 C150 148 150 148 150 150 C150.8971875 150.4021875 150.8971875 150.4021875 151.8125 150.8125 C153.99847854 151.99917406 155.41332594 153.09599113 157 155 C157 155.66 157 156.32 157 157 C157.53915039 157.21462891 158.07830078 157.42925781 158.63378906 157.65039062 C161.85069832 159.48521051 164.27139255 161.98585618 166.859375 164.59375 C167.683237 165.41474182 167.683237 165.41474182 168.52374268 166.25231934 C169.67925859 167.4064778 170.83226685 168.56315167 171.98291016 169.72216797 C173.750735 171.50073946 175.5290213 173.26834763 177.30859375 175.03515625 C178.43032971 176.15821308 179.55144551 177.28188976 180.671875 178.40625 C181.20617126 178.9364978 181.74046753 179.46674561 182.29095459 180.01306152 C186 183.77006146 186 183.77006146 186 186 C186.99 186.33 187.98 186.66 189 187 C189 187.66 189 188.32 189 189 C189.88752708 189.39955147 189.88752708 189.39955147 190.79298401 189.80717468 C193.04903336 191.02650104 194.51281412 192.27108651 196.31225586 194.08520508 C197.24859108 195.02176689 197.24859108 195.02176689 198.20384216 195.97724915 C198.86747269 196.65120224 199.53110321 197.32515533 200.21484375 198.01953125 C200.90759903 198.71511642 201.60035431 199.4107016 202.31410217 200.12736511 C204.5266454 202.35108759 206.73214558 204.58165015 208.9375 206.8125 C210.41815752 208.30319368 211.89927236 209.79343326 213.38085938 211.28320312 C216.10953975 214.02819773 218.83554411 216.77578952 221.55834961 219.52661133 C226.87767665 224.91583434 226.87767665 224.91583434 232.3125 230.1875 C234 232 234 232 234 234 C235.32 234.66 236.64 235.32 238 236 C238 236.66 238 237.32 238 238 C238.57234375 238.2475 239.1446875 238.495 239.734375 238.75 C242.35010611 240.19316199 244.14773456 241.88216222 246.25 244 C247.30960938 245.051875 247.30960938 245.051875 248.390625 246.125 C250 248 250 248 250 250 C250.99 250.33 251.98 250.66 253 251 C255.51215363 253.31891104 257.73779943 255.65642684 259.8125 258.375 C262.2705232 261.32462783 264.98634923 263.66664934 267.89453125 266.16015625 C269.9892994 267.99064938 272.00894331 269.86990717 274 271.8125 C274.5775 272.37582031 275.155 272.93914062 275.75 273.51953125 C277 275 277 275 277 277 C277.9590625 277.4021875 277.9590625 277.4021875 278.9375 277.8125 C281 279 281 279 282 282 C282.66 282 283.32 282 284 282 C285.72178323 283.63132176 287.36001944 285.28994906 289 287 C290.03432889 288.01782189 291.0721954 289.0320593 292.11328125 290.04296875 C293.17973223 291.09110033 294.24613804 292.13927786 295.3125 293.1875 C296.13717773 293.98704102 296.13717773 293.98704102 296.97851562 294.80273438 C298.35715678 296.16424956 299.68339727 297.57840502 301 299 C301 299.66 301 300.32 301 301 C301.8971875 301.4021875 301.8971875 301.4021875 302.8125 301.8125 C304.99847854 302.99917406 306.41332594 304.09599113 308 306 C308 306.66 308 307.32 308 308 C308.66 308 309.32 308 310 308 C310 308.66 310 309.32 310 310 C310.99 310.33 311.98 310.66 313 311 C314.71358643 312.61838719 316.3707726 314.29671681 318 316 C319.20567474 317.21098609 320.41411476 318.41922398 321.625 319.625 C322.75 320.75 323.875 321.875 325 323 C325.56460938 323.52335937 326.12921875 324.04671875 326.7109375 324.5859375 C328 326 328 326 328 328 C328.66 328 329.32 328 330 328 C331.4375 329.49609375 331.4375 329.49609375 333 331.4375 C335.14525044 334.15188238 335.14525044 334.15188238 338 336 C338 336.66 338 337.32 338 338 C338.66 338 339.32 338 340 338 C341.36176922 339.64351457 342.68962066 341.31522656 344 343 C344.763125 343.7425 345.52625 344.485 346.3125 345.25 C358.13634188 357.34881495 363.38088214 371.11375895 363.30273438 387.91162109 C362.9095639 403.45277623 356.5308479 415.79799032 346 427 C344.08814992 428.71293235 342.14323509 430.38369961 340.1965332 432.05688477 C336.21666345 435.57758982 332.49664472 439.35962206 328.75 443.125 C327.96109375 443.91003906 327.1721875 444.69507813 326.359375 445.50390625 C322.67327089 449.19623689 319.20956581 452.87888686 316 457 C314.01739574 458.68732277 312.0167658 460.35366057 310 462 C308.32090738 463.65414737 306.6568216 465.32354609 305 467 C303.82320016 468.17354566 302.64529903 469.34598756 301.46655273 470.51757812 C297.88976724 474.07653102 294.31606302 477.63856096 290.7434082 481.20166016 C289.20523768 482.73478216 287.66617362 484.26700819 286.1262207 485.79833984 C283.89296915 488.01943991 281.66298241 490.24377348 279.43359375 492.46875 C278.74808945 493.14909302 278.06258514 493.82943604 277.35630798 494.53039551 C274.62296635 497.26341668 272.05565494 499.92933223 269.66040039 502.97070312 C268.8385022 503.97520508 268.8385022 503.97520508 268 505 C267.34 505 266.68 505 266 505 C266 505.66 266 506.32 266 507 C264.62573242 508.35302734 264.62573242 508.35302734 262.66796875 509.9609375 C257.2580621 514.56191955 252.30850229 519.58309804 247.3125 524.625 C245.92708008 526.0171875 245.92708008 526.0171875 244.51367188 527.4375 C242.79741212 529.16240902 241.08219003 530.88835167 239.3684082 532.61572266 C236.19163363 535.8137827 233.00985624 539.00625849 229.796875 542.16796875 C229.12140625 542.83441406 228.4459375 543.50085938 227.75 544.1875 C226.72132813 545.19876953 226.72132813 545.19876953 225.671875 546.23046875 C223.92550889 547.90798995 223.92550889 547.90798995 223 550 C222.34 550 221.68 550 221 550 C220.67 550.99 220.34 551.98 220 553 C218.57476807 554.40646362 218.57476807 554.40646362 216.68847656 555.94482422 C210.80834455 560.93900503 205.42936399 566.42641224 199.984375 571.8828125 C198.83968416 573.02682823 197.69484504 574.1706956 196.54986572 575.31442261 C194.1647555 577.69806738 191.78144089 580.08348889 189.39941406 582.47021484 C186.35435608 585.52098894 183.30480345 588.56722452 180.25390244 591.61215401 C177.89459025 593.96784595 175.53767316 596.32592265 173.18146515 598.68471909 C172.05791747 599.80893097 170.93363444 600.93240845 169.80858612 602.05511856 C168.2368136 603.6243383 166.66830412 605.19675066 165.10058594 606.77001953 C164.20982361 607.66157745 163.31906128 608.55313538 162.40130615 609.47171021 C159.94559449 611.97330304 159.94559449 611.97330304 157.80621338 614.82687378 C157.21016296 615.54400543 156.61411255 616.26113708 156 617 C155.34 617 154.68 617 154 617 C154 617.66 154 618.32 154 619 C152.55583191 620.42416382 152.55583191 620.42416382 150.54370117 622.08740234 C145.89635747 626.04193985 141.5990347 630.27382226 137.30078125 634.6015625 C136.50270554 635.40105316 135.70462982 636.20054382 134.88237 637.02426147 C132.35669936 639.55548025 129.83454043 642.09016469 127.3125 644.625 C125.60895728 646.333566 123.90518329 648.04190144 122.20117188 649.75 C119.07840153 652.88090112 115.95694261 656.01309624 112.8371582 659.14697266 C105.05704792 666.96128239 105.05704792 666.96128239 101.97265625 669.9921875 C98.83901121 673.08097464 95.80074943 676.16649593 93 679.5625 C90.24127536 682.86244583 87.14474659 685.59414428 83.87890625 688.3828125 C80.29627703 691.46640605 77.14092568 694.81045254 74.125 698.4375 C71.54335401 701.49698278 68.74769442 704.03800241 65.671875 706.58984375 C62.29705746 709.43636042 59.44733294 712.32900059 57 716 C56.34 716 55.68 716 55 716 C54.6596875 716.86625 54.6596875 716.86625 54.3125 717.75 C52.65599487 720.58972308 50.57432012 721.95224536 48 724 C46.4855807 725.66586123 45.04895372 727.3775595 43.625 729.12109375 C41.5343558 731.5384011 39.26471511 733.74491674 37 736 C35.40131418 737.62007842 33.80367956 739.24119475 32.20703125 740.86328125 C30.40898809 742.67982007 28.6108072 744.49622257 26.8125 746.3125 C25.89791016 747.24384766 24.98332031 748.17519531 24.04101562 749.13476562 C23.16767578 750.01455078 22.29433594 750.89433594 21.39453125 751.80078125 C20.20114136 753.00988159 20.20114136 753.00988159 18.98364258 754.2434082 C17 756 17 756 15 756 C14.7628125 756.56074219 14.525625 757.12148437 14.28125 757.69921875 C8.09550438 768.8071583 -5.07276642 777.34694224 -17 781 C-31.4885531 785.03312219 -46.10619469 782.61276466 -59.125 775.3125 C-69.30524598 768.70509788 -77.74432107 759.44213213 -86.29003906 750.89526367 C-88.15151919 749.03601257 -90.02092154 747.18496161 -91.890625 745.33398438 C-93.07600734 744.15152918 -94.26092147 742.96860438 -95.4453125 741.78515625 C-96.004534 741.23312027 -96.56375549 740.68108429 -97.1399231 740.11231995 C-101 736.22887807 -101 736.22887807 -101 734 C-101.66 734 -102.32 734 -103 734 C-104.38866049 732.59165657 -104.38866049 732.59165657 -106.02428532 730.60738945 C-110.30777332 725.57554988 -114.92939317 720.9410134 -119.61143494 716.2817688 C-120.57052296 715.32367879 -121.5293861 714.36536361 -122.48804575 713.40684497 C-125.10375628 710.7927688 -127.72255837 708.1818096 -130.34188998 705.5713625 C-133.17323651 702.7484875 -136.00163067 699.92265713 -138.83035278 697.09715271 C-143.72551881 692.20826862 -148.62240422 687.32111236 -153.52036858 682.43503189 C-160.60291121 675.36949385 -167.68171684 668.30022088 -174.75943191 661.2298473 C-186.24537147 649.75583796 -197.73281721 638.28333811 -209.22192383 626.8125 C-209.90879733 626.12671662 -210.59567083 625.44093324 -211.30335868 624.73436855 C-221.06866212 614.98470273 -230.8354452 605.23652046 -240.60280765 595.48891746 C-241.29180349 594.80131493 -241.98079933 594.1137124 -242.69067383 593.40527344 C-243.37883074 592.71851005 -244.06698766 592.03174667 -244.77599781 591.32417227 C-256.23363552 579.88953664 -267.68743842 568.45106877 -279.1380797 557.00942695 C-286.20200421 549.95136504 -293.26917992 542.89658939 -300.34052128 535.84595816 C-305.17761753 531.02252828 -310.0111406 526.19553755 -314.84181415 521.3656754 C-317.63215905 518.57603716 -320.42415353 515.78810087 -323.22048759 513.0044651 C-325.77621666 510.46028173 -328.32737165 507.9116062 -330.87484915 505.35916136 C-332.24209094 503.99169478 -333.61430536 502.6292057 -334.98664516 501.26685536 C-335.78699265 500.46314247 -336.58734013 499.65942959 -337.41194057 498.83136177 C-338.10986924 498.13473462 -338.8077979 497.43810747 -339.52687591 496.72037041 C-341 495 -341 495 -341 493 C-341.61875 492.7525 -342.2375 492.505 -342.875 492.25 C-345.40358627 490.76259631 -345.71839004 489.56321991 -347 487 C-347.58910156 486.71640625 -348.17820312 486.4328125 -348.78515625 486.140625 C-354.38338891 483.25758455 -358.88540507 477.4789869 -362.8125 472.625 C-364.75173833 470.29791401 -366.59317781 468.78283125 -369 467 C-369 466.34 -369 465.68 -369 465 C-369.66 465 -370.32 465 -371 465 C-372.33895632 463.33784732 -373.67130142 461.67036393 -375 460 C-376.65002828 458.64613064 -378.3174387 457.31321858 -380 456 C-383.56086601 452.54053218 -386.9198429 448.93069995 -390.25 445.25 C-395.81952487 439.12919618 -401.55867389 433.1955171 -407.625 427.5625 C-419.70898213 414.52451928 -423.65337844 400.80089039 -423.2421875 383.4375 C-422.49868567 366.06458607 -413.40308598 352.49967456 -401 341 C-400.34 341 -399.68 341 -399 341 C-398.6596875 340.13375 -398.6596875 340.13375 -398.3125 339.25 C-396.65273655 336.40469122 -394.57933333 335.06346666 -392 333 C-390.93701263 331.83154652 -389.89754545 330.64150436 -388.875 329.4375 C-384.22182754 323.98839015 -379.09657143 319.02891783 -374 314 C-372.86268919 312.86334634 -371.7255 311.72657073 -370.58892441 310.5891819 C-366.97249635 306.97216779 -363.35094969 303.36027205 -359.73095703 299.74682617 C-350.28559931 290.31785594 -340.84280747 280.88632022 -331.40149117 271.45330334 C-325.69203343 265.74900093 -319.98163709 260.04564403 -314.26904297 254.34448242 C-309.27161606 249.35705131 -304.27597498 244.36783937 -299.28243148 239.37651998 C-296.6449403 236.74032614 -294.00659274 234.10500307 -291.36609268 231.47182274 C-288.41724672 228.531087 -285.47239433 225.5863824 -282.52783203 222.64135742 C-281.66318329 221.78030396 -280.79853455 220.91925049 -279.90768433 220.03210449 C-275.6051065 215.72222609 -271.4670616 211.33930522 -267.49594307 206.72220898 C-265.61805107 204.56028014 -263.64067717 202.52052922 -261.61279297 200.49926758 C-260.82863007 199.71518021 -260.04446716 198.93109283 -259.23654175 198.12324524 C-258.0018364 196.89628181 -258.0018364 196.89628181 -256.7421875 195.64453125 C-255.8761087 194.7798674 -255.01002991 193.91520355 -254.1177063 193.02433777 C-251.3724961 190.28468167 -248.62382003 187.54853369 -245.875 184.8125 C-244.02190317 182.96442555 -242.1690364 181.11612039 -240.31640625 179.26757812 C-236.92183075 175.88113919 -233.52596928 172.49600214 -230.12841797 169.11254883 C-229.39846619 168.38427887 -228.6685144 167.65600891 -227.91644287 166.90567017 C-226.45287443 165.45032873 -224.97895791 164.00538652 -223.50048828 162.56518555 C-221.35149705 160.36059163 -219.32642542 158.10656416 -217.29296875 155.796875 C-210.75703692 148.49857466 -203.76210605 141.65152826 -196.81890869 134.7437439 C-194.26992 132.20763516 -191.72417073 129.66831338 -189.17919922 127.12817383 C-183.78895285 121.74928385 -178.3947534 116.37436914 -173 111 C-166.71833839 104.74193956 -160.43830745 98.48226038 -154.16244507 92.21838379 C-151.6510976 89.71353012 -149.13676603 87.21169804 -146.62231445 84.70996094 C-145.09441736 83.18569365 -143.56665897 81.66128732 -142.0390625 80.13671875 C-141.33679031 79.43961288 -140.63451813 78.74250702 -139.91096497 78.02427673 C-139.27470688 77.38808914 -138.63844879 76.75190155 -137.98291016 76.09643555 C-137.42769684 75.54344284 -136.87248352 74.99045013 -136.30044556 74.42070007 C-134.89192518 73.01221328 -134.89192518 73.01221328 -134 71 C-133.34 71 -132.68 71 -132 71 C-132 70.34 -132 69.68 -132 69 C-131.34 69 -130.68 69 -130 69 C-130 68.34 -130 67.68 -130 67 C-129.34 67 -128.68 67 -128 67 C-127.6596875 66.1646875 -127.6596875 66.1646875 -127.3125 65.3125 C-125.62449964 62.33840412 -123.53323483 60.27991135 -121 58 C-120.34 58 -119.68 58 -119 58 C-119 57.34 -119 56.68 -119 56 C-117.37841595 54.28943848 -115.70314462 52.62937226 -114 51 C-112.42938283 49.41109404 -110.86026182 47.82070805 -109.29248047 46.22900391 C-104.79483824 41.66720473 -100.28828973 37.11438721 -95.77515984 32.56791115 C-93.05661683 29.8285404 -90.34192945 27.08556615 -87.63574219 24.33398438 C-84.99997634 21.65432126 -82.35416659 18.98494359 -79.70151138 16.32200241 C-78.70220682 15.31539851 -77.70638229 14.30532545 -76.71441269 13.29149246 C-70.96468145 7.42011192 -65.30055683 2.53144188 -58.20852661 -1.65274048 C-55.90244879 -2.94061217 -55.90244879 -2.94061217 -54 -5 C-35.18994751 -11.35506089 -17.19208942 -10.61324987 0 0 Z " fill="#FE2336" transform="translate(543,381)"/>
<!-- باقي المسارات كما هي بدون تغيير -->
<!-- (I left the rest unchanged; paste the remaining <path> blocks exactly as you had them) -->
</svg>
