<?xml version="1.0" encoding="UTF-8"?>
<svg version="1.1" xmlns="http://www.w3.org/2000/svg" width="1024" height="1024">
<path d="M0 0 C10.2639286 8.40733106 19.35914351 18.28291217 28.6875 27.6875 C31.98012104 31.00685668 35.27614079 34.32278495 38.57421875 37.63671875 C39.31604904 38.38684738 40.05787933 39.13697601 40.82218933 39.90983582 C44.57940837 43.68458536 48.38126818 47.29388034 52.5025177 50.67024231 C54.07886543 52.07003215 55.36523087 53.54764516 56.6875 55.1875 C58.68674338 57.61901222 60.50722783 59.15350209 63 61 C63 61.66 63 62.32 63 63 C63.86625 63.37125 63.86625 63.37125 64.75 63.75 C67.32939979 65.18299988 69.06121592 66.78424676 71 69 C71 69.66 71 70.32 71 71 C71.99 71.33 72.98 71.66 74 72 C74 72.66 74 73.32 74 74 C74.55759538 74.23255588 75.11519075 74.46511175 75.68968296 74.70471478 C78.60303555 76.33809344 80.60412732 78.3586001 82.96507263 80.7245636 C83.69382153 81.45074923 83.69382153 81.45074923 84.43729264 82.19160527 C86.06251271 83.81353368 87.68048558 85.44250219 89.29858398 87.0715332 C90.46303065 88.23654409 91.62791804 89.4011146 92.79321289 90.5652771 C95.95679597 93.72828576 99.1141682 96.89742961 102.27047992 100.06769204 C105.57575209 103.38547078 108.88669256 106.69758297 112.19703674 110.01029968 C118.47067107 116.29015434 124.73919143 122.57508819 131.00589567 128.86185759 C138.11978841 135.99804016 145.23929997 143.12860547 152.35932052 150.25867331 C164.53408371 162.45081171 176.70464001 174.64713625 188.87043762 186.84822083 C189.38542204 187.36468444 189.90040647 187.88114805 190.43099648 188.41326207 C191.79986306 189.78609189 193.16866769 191.15898349 194.537467 192.53188038 C196.24295056 194.24123308 197.94975408 195.94926944 199.65760899 197.65625286 C201.30079775 199.30039295 202.93785017 200.95067791 204.5703125 202.60546875 C205.41335938 203.45753906 206.25640625 204.30960938 207.125 205.1875 C208.39730469 206.47720703 208.39730469 206.47720703 209.6953125 207.79296875 C211.99149995 210.12061421 211.99149995 210.12061421 215 212 C219.96971732 207.05557897 224.93555629 202.10728786 229.89868164 197.15625 C231.58853924 195.47142996 233.27929207 193.78750734 234.97094727 192.10449219 C237.39834141 189.68918878 239.8225277 187.2707063 242.24609375 184.8515625 C243.38672523 183.71867294 243.38672523 183.71867294 244.55039978 182.56289673 C245.25105057 181.86232147 245.95170135 181.16174622 246.67358398 180.43994141 C247.29313461 179.82261139 247.91268524 179.20528137 248.55101013 178.56924438 C250.09362196 177.04459688 250.09362196 177.04459688 251 175 C251.66 175 252.32 175 253 175 C253 174.34 253 173.68 253 173 C256.27574735 169.48138531 259.84512164 166.31482816 263.4375 163.125 C266.70489933 160.1834599 269.76390551 157.26640021 272.5625 153.875 C273.366875 152.92625 274.17125 151.9775 275 151 C275.66 151 276.32 151 277 151 C277 150.34 277 149.68 277 149 C278.61918579 147.28716815 280.29733962 145.62987827 282 144 C282.94838579 143.05292008 283.89370396 142.10276009 284.83620739 141.14982605 C285.34160461 140.64134534 285.84700182 140.13286463 286.36771411 139.60897541 C287.17608083 138.79549279 287.17608083 138.79549279 288.0007782 137.96557617 C289.21698407 136.7420391 290.43320708 135.51851906 291.64944458 134.29501343 C292.29428425 133.6462965 292.93912392 132.99757957 293.60350418 132.32920456 C308.46281616 117.38140213 323.33646527 102.44793529 338.21834087 87.52259827 C346.81799357 78.89715291 355.41288129 70.26705662 363.99682617 61.62597656 C371.49572232 54.07719354 379.003412 46.53728671 386.52172118 39.00783634 C390.49675289 35.02629984 394.46729995 31.04051596 398.42731285 27.04403687 C402.15357449 23.28373484 405.89151638 19.53544723 409.63858223 15.79587936 C411.00785274 14.42523841 412.37287566 13.05033816 413.73317719 11.67079544 C423.4892732 1.78356033 432.44623526 -6.16477677 447 -7 C458.39698681 -6.30611952 467.30965104 -0.48260781 475.01953125 7.53125 C475.72599289 8.24478638 476.43245453 8.95832275 477.1603241 9.69348145 C479.38987445 11.95072741 481.60131868 14.224772 483.8125 16.5 C485.31327526 18.02589895 486.81521949 19.5506491 488.31835938 21.07421875 C491.07345651 23.86992448 493.82172148 26.67196496 496.56176758 29.48242188 C501.76076358 34.94204316 501.76076358 34.94204316 507.4375 39.875 C510.16002381 42.13270268 512.27089833 44.56518194 514.53125 47.26953125 C517.42321899 50.6768245 520.5701788 53.64181567 524 56.5 C528.06238438 59.88532031 531.61450485 63.51199687 535 67.5625 C537.43195146 70.44227883 540.00554608 72.69657391 543 75 C544.68762851 76.6454378 546.3540349 78.31288577 548 80 C548.928125 80.886875 549.85625 81.77375 550.8125 82.6875 C553 85 553 85 553 87 C553.58237395 87.25719566 554.16474791 87.51439133 554.76476955 87.7793808 C557.20146034 89.11001387 558.80747474 90.56399867 560.76368713 92.52990723 C561.49688171 93.26179764 562.23007629 93.99368805 562.98548889 94.74775696 C564.17711891 95.95252937 564.17711891 95.95252937 565.39282227 97.18164062 C566.23714813 98.02728073 567.081474 98.87292084 567.9513855 99.7441864 C570.26268965 102.06086717 572.5695252 104.38189202 574.87461209 106.70475578 C577.28898473 109.13537176 579.70943739 111.55991633 582.12937927 113.98498535 C586.71230672 118.57928735 591.29053577 123.17823861 595.86673635 127.77924013 C604.06386407 136.02071498 612.26658964 144.25660917 620.47454876 152.48729658 C622.88250987 154.90228679 625.28916386 157.31855389 627.69302559 159.73762512 C630.37209817 162.43331268 633.05406564 165.12608973 635.73657227 167.81835938 C636.53301651 168.62154099 637.32946075 169.4247226 638.15003967 170.25224304 C638.88041443 170.98413345 639.61078918 171.71602386 640.36329651 172.47009277 C640.99690377 173.10721947 641.63051104 173.74434616 642.28331852 174.40077972 C644.11433979 176.192706 644.11433979 176.192706 647 178 C647 178.66 647 179.32 647 180 C647.60585938 180.24105469 648.21171875 180.48210937 648.8359375 180.73046875 C651.4629154 182.27156589 652.22790328 183.63097565 653.625 186.3125 C654.02976562 187.07175781 654.43453125 187.83101562 654.8515625 188.61328125 C659.62098907 198.5252528 659.81975751 207.57511476 656.359375 217.9140625 C651.33614896 229.88115982 638.19079284 239.95308249 629.09390259 249.02635193 C627.82557052 250.29512114 626.55745867 251.56411052 625.28954542 252.83329827 C621.837405 256.28765566 618.38218664 259.73891936 614.92641854 263.18964708 C611.18778043 266.92394012 607.4520602 270.66115024 603.7159729 274.397995 C597.25222965 280.86226099 590.78666715 287.32470266 584.31984329 293.78588676 C574.9646214 303.13295564 565.61218666 312.48280923 556.26041357 321.83332849 C541.07807261 337.01348408 525.89350305 352.19140836 510.70751953 367.36791992 C495.97392562 382.09233368 481.24138283 396.81779784 466.51025391 411.54467773 C465.60195023 412.45271868 464.69364656 413.36075963 463.75781853 414.29631697 C459.20010803 418.85272221 454.64241829 423.40914821 450.08473897 427.96558464 C418.69841594 459.34330557 387.30987233 490.71880389 355.91906738 522.09204102 C355.25038784 522.7603464 354.58170829 523.42865178 353.89276572 524.11720884 C350.79622559 527.21201064 347.69967377 530.30680075 344.6030966 533.40156549 C344.05312201 533.95122298 343.50314742 534.50088047 342.93650693 535.06719425 C341.48114844 536.52171282 340.02578259 537.97622402 338.57041609 539.43073457 C337.72217878 540.27859217 336.87394147 541.12644976 336 542 C335.10458193 542.88939854 334.20916386 543.77879708 333.28661191 544.6951471 C330.53279688 547.47093014 328.05273086 550.42455123 325.55078125 553.42578125 C325.03902344 553.94527344 324.52726563 554.46476563 324 555 C323.34 555 322.68 555 322 555 C321.73574219 555.60328125 321.47148438 556.2065625 321.19921875 556.828125 C319.94244926 559.1042287 318.84559838 560.16818433 316.8125 561.75 C314.16473728 563.9092087 311.90647405 566.14989477 309.69932556 568.75544739 C306.27955926 572.71751656 302.69463606 576.45969473 298.99829102 580.1628418 C298.3371228 580.82897491 297.67595459 581.49510803 296.99475098 582.181427 C294.83387086 584.35676453 292.66924814 586.52832299 290.50390625 588.69921875 C289.75906416 589.44688822 289.01422207 590.19455769 288.24680901 590.9648838 C284.31104022 594.91557231 280.37245912 598.86343053 276.43139648 602.80883789 C272.37525302 606.87047942 268.32848237 610.9413272 264.28381443 615.0143919 C261.15664656 618.160222 258.02275335 621.29928671 254.88700676 624.43656349 C253.39227723 625.934308 251.90003506 627.43453936 250.4104023 628.93735313 C248.32436411 631.04053918 246.22896107 633.1339538 244.13110352 635.2253418 C243.22294136 636.14732613 243.22294136 636.14732613 242.2964325 637.0879364 C234.7034322 644.6082116 226.1209636 649.7164468 215.203125 650.09765625 C198.4492906 649.12744833 189.11538967 638.26720259 177.87841797 627.02368164 C177.02839706 626.17701935 176.17837616 625.33035706 175.30259705 624.45803833 C173.00587981 622.16910864 170.71137779 619.87799114 168.41822958 617.58548665 C166.98317453 616.15114778 165.54740759 614.71752541 164.11139297 613.28414726 C159.09681751 608.27877073 154.08477738 603.27087205 149.07519531 598.26049805 C144.40916543 593.59386371 139.73754326 588.93287878 135.06336296 584.27440935 C131.03840524 580.26249847 127.01728292 576.246771 122.99916375 572.22801107 C120.60388699 569.83247917 118.20707706 567.43853172 115.80639267 565.04841805 C113.14206747 562.39382109 110.48407012 559.73304751 107.82763672 557.07055664 C107.02983292 556.27837234 106.23202911 555.48618805 105.41004944 554.66999817 C104.69246964 553.94822388 103.97488983 553.22644958 103.23556519 552.48280334 C102.60698545 551.85476838 101.97840572 551.22673342 101.33077812 550.57966709 C100 549 100 549 100 547 C99.11659593 546.60398235 99.11659593 546.60398235 98.21534532 546.19996434 C95.91016027 544.95133739 94.4021398 543.65068455 92.55447483 541.80057049 C91.88774897 541.13782673 91.22102311 540.47508296 90.53409344 539.79225606 C89.80987523 539.06221216 89.08565702 538.33216827 88.3394928 537.58000183 C87.56372798 536.80594586 86.78796316 536.03188989 85.98869032 535.23437768 C83.38229227 532.63128201 80.78312136 530.02108711 78.18383789 527.41088867 C76.3198911 525.54637791 74.45555226 523.68226712 72.5907135 521.81864929 C68.57142533 517.80041019 64.5558177 513.778523 60.54268074 509.75414085 C54.73491406 503.93011209 48.92162511 498.11162129 43.10697835 492.29446248 C33.66611709 482.8492226 24.22973063 473.39952519 14.79614258 463.94702148 C5.64450128 454.77704908 -3.50921703 445.60915835 -12.66577148 436.4440918 C-13.22942273 435.8799151 -13.79307398 435.3157384 -14.37380558 434.73446544 C-17.20220624 431.90345414 -20.03064846 429.07248436 -22.85911167 426.24153554 C-42.36543247 406.71798875 -61.86732335 387.19002557 -81.36468506 367.65753174 C-82.1871422 366.83359541 -83.00959934 366.00965908 -83.85697943 365.16075498 C-85.37146335 363.64352171 -86.88592229 362.1262635 -88.40035003 360.60897416 C-91.93186865 357.07094793 -95.46454453 353.53409333 -99 350 C-102.66666667 346.33333333 -106.33333333 342.66666667 -110 339 C-111.35158203 337.66582031 -111.35158203 337.66582031 -112.73046875 336.3046875 C-115 334 -115 334 -116.8125 331.625 C-119.38935747 328.53277103 -122.28903683 326.10336568 -125.390625 323.55078125 C-125.92171875 323.03902344 -126.4528125 322.52726562 -127 322 C-127 321.34 -127 320.68 -127 320 C-127.57938072 319.7453812 -128.15876144 319.49076241 -128.75569916 319.22842789 C-131.24439519 317.86622923 -132.90267931 316.34900352 -134.90881348 314.34515381 C-136.05692253 313.20550423 -136.05692253 313.20550423 -137.22822571 312.04283142 C-138.05847763 311.20853104 -138.88872955 310.37423065 -139.74414062 309.51464844 C-140.62587448 308.63641922 -141.50760834 307.75819 -142.4160614 306.85334778 C-144.83097674 304.44572631 -147.24130428 302.03368868 -149.6493969 299.61925411 C-152.17362887 297.08995307 -154.70274342 294.56554186 -157.2310791 292.04034424 C-161.47813403 287.79692764 -165.72095595 283.54931282 -169.96142578 279.29931641 C-174.85642518 274.39344674 -179.75856879 269.49480459 -184.66451311 264.59988189 C-188.88148143 260.39200698 -193.09451768 256.18022501 -197.30432844 251.96518922 C-199.81632924 249.45007821 -202.32964299 246.93631921 -204.84651184 244.4260788 C-207.65538482 241.62408698 -210.45599405 238.81392367 -213.25585938 236.00292969 C-214.50123726 234.7636245 -214.50123726 234.7636245 -215.77177429 233.49928284 C-224.08135216 225.12847851 -229.91350821 216.06392716 -230.4375 203.8125 C-228.70278863 188.69572945 -220.17388476 177.91453954 -208.65625 168.46484375 C-206.37067472 166.44340335 -204.47289731 164.17514254 -202.5546875 161.80859375 C-200.4925048 159.40962242 -198.24391857 157.23020345 -196 155 C-195.10222839 154.10444901 -194.20445679 153.20889801 -193.27947998 152.28620911 C-192.28888056 151.29861327 -191.29825845 150.31104019 -190.30761719 149.32348633 C-184.78182336 143.81396914 -179.25852479 138.30195767 -173.73667526 132.78848743 C-170.40128441 129.45833895 -167.06495438 126.12914219 -163.7265625 122.80200195 C-160.48965504 119.57593043 -157.25517072 116.34744792 -154.02237701 113.11725426 C-152.79042593 111.88715326 -151.55759389 110.6579339 -150.32387543 109.42960548 C-148.60519946 107.71815113 -146.88964043 106.003631 -145.17480469 104.28833008 C-144.4065184 103.52543671 -144.4065184 103.52543671 -143.62271118 102.74713135 C-140.97896383 100.1243603 -140.97896383 100.1243603 -139 97 C-138.34 97 -137.68 97 -137 97 C-136.61723907 96.13051255 -136.61723907 96.13051255 -136.22674561 95.2434597 C-134.87109124 92.76425299 -133.363763 91.10650996 -131.37207031 89.10464478 C-130.61808456 88.34212906 -129.86409882 87.57961334 -129.08726501 86.79399109 C-128.25924881 85.96688126 -127.4312326 85.13977142 -126.578125 84.28759766 C-125.70632095 83.40907639 -124.83451691 82.53055511 -123.93629456 81.62541199 C-121.54509734 79.21846949 -119.14941913 76.81618111 -116.75098038 74.41646624 C-115.2498852 72.91394759 -113.75022406 71.41001293 -112.25106812 69.90555954 C-107.01212375 64.64810985 -101.76803483 59.39585546 -96.51904297 54.1484375 C-91.64189423 49.2724873 -86.77597818 44.38552674 -81.91527748 39.49318469 C-77.73122062 35.28287425 -73.53938428 31.08041544 -69.3415432 26.88384855 C-66.83934236 24.38215509 -64.34027214 21.87752823 -61.84899902 19.36494827 C-59.06292203 16.55569773 -56.26072341 13.76286676 -53.45703125 10.97119141 C-52.23929771 9.73659935 -52.23929771 9.73659935 -50.9969635 8.47706604 C-36.70962947 -5.6559225 -17.80332649 -12.67105984 0 0 Z " fill="#FD2636" transform="translate(298,192)"/>
<path d="" fill="#FE2636" transform="translate(0,0)"/>
<path d="" fill="#FF0000" transform="translate(0,0)"/>
<path d="" fill="#FF0000" transform="translate(0,0)"/>
<path d="" fill="#FF0080" transform="translate(0,0)"/>
<path d="" fill="#FF0000" transform="translate(0,0)"/>
<path d="" fill="#FF0000" transform="translate(0,0)"/>
<path d="" fill="#FF0000" transform="translate(0,0)"/>
<path d="" fill="#FF0000" transform="translate(0,0)"/>
<path d="" fill="#FF0000" transform="translate(0,0)"/>
<path d="" fill="#FF0000" transform="translate(0,0)"/>
<path d="" fill="#FF0080" transform="translate(0,0)"/>
<path d="" fill="#FF0000" transform="translate(0,0)"/>
<path d="" fill="#FF0000" transform="translate(0,0)"/>
<path d="" fill="#FF0000" transform="translate(0,0)"/>
<path d="" fill="#FF0080" transform="translate(0,0)"/>
<path d="" fill="#FF0000" transform="translate(0,0)"/>
<path d="" fill="#FF0000" transform="translate(0,0)"/>
<path d="" fill="#FF0080" transform="translate(0,0)"/>
<path d="" fill="#FF0000" transform="translate(0,0)"/>
<path d="" fill="#FF0080" transform="translate(0,0)"/>
<path d="" fill="#FF0000" transform="translate(0,0)"/>
<path d="" fill="#FF0000" transform="translate(0,0)"/>
<path d="" fill="#FF0000" transform="translate(0,0)"/>
<path d="" fill="#FF0080" transform="translate(0,0)"/>
<path d="" fill="#FF0000" transform="translate(0,0)"/>
<path d="" fill="#FF0000" transform="translate(0,0)"/>
<path d="" fill="#FF0000" transform="translate(0,0)"/>
<path d="" fill="#FF0000" transform="translate(0,0)"/>
<path d="" fill="#FF0000" transform="translate(0,0)"/>
<path d="" fill="#FF0000" transform="translate(0,0)"/>
<path d="" fill="#FF0000" transform="translate(0,0)"/>
<path d="" fill="#FF0000" transform="translate(0,0)"/>
<path d="" fill="#FF0080" transform="translate(0,0)"/>
<path d="" fill="#FF0000" transform="translate(0,0)"/>
<path d="" fill="#FF0000" transform="translate(0,0)"/>
<path d="" fill="#FF0000" transform="translate(0,0)"/>
<path d="" fill="#FF0000" transform="translate(0,0)"/>
<path d="" fill="#FF0000" transform="translate(0,0)"/>
<path d="" fill="#FF0000" transform="translate(0,0)"/>
<path d="" fill="#FF0000" transform="translate(0,0)"/>
<path d="" fill="#FF0000" transform="translate(0,0)"/>
<path d="" fill="#FF0000" transform="translate(0,0)"/>
<path d="" fill="#FF0000" transform="translate(0,0)"/>
<path d="" fill="#FF0000" transform="translate(0,0)"/>
<path d="" fill="#FF0000" transform="translate(0,0)"/>
<path d="" fill="#FF0000" transform="translate(0,0)"/>
<path d="" fill="#FF0000" transform="translate(0,0)"/>
<path d="" fill="#FF0000" transform="translate(0,0)"/>
<path d="" fill="#FF0000" transform="translate(0,0)"/>
<path d="" fill="#FF0000" transform="translate(0,0)"/>
</svg>
